<?xml version="1.0" standalone="no"?>
<!DOCTYPE svg PUBLIC "-//W3C//DTD SVG 20010904//EN"
 "http://www.w3.org/TR/2001/REC-SVG-20010904/DTD/svg10.dtd">
<svg version="1.0" xmlns="http://www.w3.org/2000/svg"
 width="1024.000000pt" height="1024.000000pt" viewBox="0 0 1024.000000 1024.000000"
 preserveAspectRatio="xMidYMid meet">

<g transform="translate(0.000000,1024.000000) scale(0.100000,-0.100000)"
fill="#C24F1E" stroke="none">
<path d="M6012 8694 c-16 -11 -22 -25 -22 -53 0 -59 53 -94 97 -66 48 32 47
101 -3 124 -33 15 -45 14 -72 -5z"/>
<path d="M6409 8548 l-33 -41 117 -111 118 -111 -1 -48 c0 -104 99 -207 200
-207 99 0 190 94 190 196 0 148 -174 249 -294 171 -23 -16 -26 -13 -135 89
-61 57 -115 104 -120 104 -5 0 -24 -19 -42 -42z"/>
<path d="M7333 8495 c-50 -21 -59 -80 -18 -120 41 -42 102 -30 124 24 26 62
-41 123 -106 96z"/>
<path d="M5509 8440 c-92 -48 -87 -180 8 -225 48 -23 98 -12 140 30 27 27 33
41 33 75 0 53 -23 92 -70 119 -46 26 -64 26 -111 1z"/>
<path d="M6041 8350 c-49 -12 -83 -40 -108 -90 -22 -43 -23 -52 -23 -367 0
-276 -2 -327 -16 -347 -34 -54 -116 -40 -134 23 -5 20 -10 113 -10 207 0 157
-2 174 -20 197 -49 62 -160 54 -196 -15 -12 -22 -14 -124 -14 -588 0 -576 -1
-588 -39 -617 -26 -20 -76 -15 -97 8 -17 19 -20 43 -24 226 l-5 205 -33 29
c-44 40 -106 43 -172 9 -61 -31 -130 -118 -220 -276 -208 -367 -289 -484 -432
-625 -143 -141 -295 -210 -468 -213 -52 0 -112 3 -133 7 l-37 8 2 -810 3 -810
29 -30 c37 -38 68 -46 111 -25 74 35 70 -5 73 705 2 621 3 636 23 657 25 28
82 29 108 3 17 -17 19 -52 25 -637 8 -648 6 -691 -35 -763 l-21 -38 46 -199
c121 -533 201 -1073 222 -1515 l7 -136 -85 -5 c-66 -3 -98 -10 -141 -32 -71
-34 -157 -126 -188 -200 l-23 -56 -786 0 -787 0 -34 -23 c-55 -37 -51 -119 8
-146 17 -8 918 -11 3292 -11 3260 0 3268 0 3294 20 50 39 43 116 -12 145 -26
13 -116 15 -715 15 -646 0 -684 1 -680 18 2 9 20 94 39 187 77 367 180 747
313 1152 l79 242 -38 41 c-121 127 -142 332 -55 538 13 31 73 161 134 287 157
330 216 493 262 730 l12 59 23 -89 c83 -328 222 -483 464 -520 l44 -7 -6 44
c-9 66 -43 150 -87 215 -29 43 -60 72 -119 112 -158 104 -170 130 -256 554
-71 351 -147 559 -279 762 -78 120 -142 192 -337 385 -184 182 -208 213 -311
403 -133 247 -277 389 -472 462 -111 42 -109 43 -104 -77 6 -137 34 -196 132
-288 129 -120 155 -151 176 -208 38 -100 25 -258 -25 -308 -26 -26 -33 -28
-53 -15 -15 9 -17 31 -6 107 8 61 -5 106 -46 163 -28 39 -156 151 -172 151 -4
0 -9 -217 -10 -482 l-3 -483 -28 -57 c-30 -61 -74 -105 -140 -140 -34 -18 -58
-23 -127 -23 -77 0 -90 3 -140 31 -105 60 -155 174 -125 289 26 100 86 169
174 200 54 19 101 19 171 0 30 -8 56 -15 58 -15 1 0 2 274 2 609 0 447 -3 612
-11 617 -7 4 -78 11 -158 16 -182 12 -214 20 -245 61 -21 28 -24 45 -28 139
-4 97 -7 112 -34 155 -46 75 -139 114 -223 93z m214 -666 l25 -27 0 -385 c0
-382 0 -386 -22 -409 -41 -44 -118 -22 -133 39 -3 13 -5 188 -3 390 l3 366 24
26 c32 35 74 34 106 0z m-367 -520 l22 -25 0 -1208 0 -1208 23 -34 c53 -79
139 -73 183 13 12 22 14 127 14 590 0 493 2 566 16 586 24 34 48 43 83 31 63
-22 61 3 61 -780 0 -705 0 -712 21 -746 11 -18 35 -41 52 -49 42 -22 101 -5
127 38 17 29 19 69 22 777 3 693 4 749 21 774 32 50 101 45 126 -10 8 -17 11
-302 11 -986 0 -924 1 -963 19 -993 10 -17 35 -38 55 -48 47 -22 96 -8 130 37
23 32 23 34 29 374 4 229 10 356 18 385 9 31 31 60 76 104 l63 61 0 627 0 627
25 24 c30 31 71 32 102 3 l23 -21 0 -763 0 -762 24 -83 c55 -190 213 -535 360
-788 l67 -115 -7 -60 c-12 -126 -56 -455 -74 -566 -11 -63 -29 -180 -40 -260
-27 -189 -24 -180 -69 -180 -118 0 -263 -120 -302 -251 l-12 -39 -78 0 c-77 0
-78 0 -70 22 19 50 162 353 346 733 172 356 195 407 200 465 l7 65 -77 145
c-162 309 -341 706 -370 822 -8 33 -30 52 -49 45 -11 -4 -13 -32 -9 -144 4
-130 7 -146 48 -268 24 -71 78 -256 121 -410 l78 -280 -33 -95 c-32 -90 -202
-517 -287 -717 l-39 -93 -77 0 c-177 0 -308 -84 -379 -244 l-20 -46 -636 0
-636 0 7 113 c26 426 64 820 116 1192 54 380 52 371 76 367 74 -11 104 -7 131
21 l28 27 3 249 3 248 -30 12 c-44 19 -114 90 -141 146 l-25 50 -3 845 c-2
465 0 860 3 878 13 69 81 94 126 46 l24 -26 5 -846 c4 -655 8 -852 18 -869 42
-74 147 -71 195 6 l22 36 2 1202 c1 879 5 1207 13 1223 24 45 79 47 118 4z
m-757 -473 l29 -29 0 -1511 c0 -1101 -3 -1517 -11 -1535 -26 -55 -112 -55
-138 0 -8 18 -11 434 -11 1534 l0 1508 26 31 c33 40 66 40 105 2z m2375 4 c48
-20 80 -90 64 -139 -30 -93 -149 -112 -204 -34 -26 36 -20 101 11 138 42 50
73 59 129 35z m376 -182 c11 -13 17 -47 20 -118 6 -136 23 -173 133 -278 48
-45 96 -100 107 -122 54 -104 21 -297 -49 -283 -16 3 -18 13 -15 79 3 70 2 77
-30 124 -18 27 -58 69 -88 94 l-55 44 -5 -349 c-5 -381 -7 -393 -68 -458 -76
-81 -220 -88 -301 -13 -31 28 -61 93 -61 133 0 64 43 146 95 180 52 34 103 36
193 9 l22 -7 0 469 c0 408 2 471 16 491 19 27 64 29 86 5z m-3055 -338 c44
-31 47 -63 40 -495 -4 -223 -7 -458 -7 -523 0 -112 -1 -119 -25 -142 -35 -36
-88 -34 -126 4 l-29 29 0 532 c0 541 1 550 38 593 19 21 79 23 109 2z m-328
-121 c49 -35 51 -55 51 -474 0 -415 -3 -445 -48 -469 -38 -20 -82 -13 -113 18
l-29 29 0 412 c0 434 3 463 47 489 27 15 65 13 92 -5z m3057 -25 c57 -53 49
-143 -15 -186 -88 -59 -190 7 -178 114 11 100 121 140 193 72z m216 -1157 c42
-42 41 -100 -1 -143 -22 -21 -39 -29 -66 -29 -51 0 -95 44 -95 95 0 47 14 71
53 96 39 24 72 18 109 -19z m-3115 -182 c61 -153 111 -313 149 -481 114 -509
163 -753 198 -999 25 -167 56 -456 63 -571 l6 -106 -65 -5 c-76 -6 -155 -42
-210 -95 -31 -31 -84 -122 -102 -176 -4 -14 -17 -17 -72 -17 l-67 0 6 68 c40
461 112 1034 183 1475 l18 107 -43 193 c-54 245 -101 409 -162 569 -27 70 -49
134 -49 142 0 8 12 19 28 25 56 21 62 15 119 -129z m-100 -775 c32 -37 37 -68
18 -108 -35 -75 -133 -78 -171 -5 -22 42 -11 90 28 123 40 34 91 29 125 -10z"/>
<path d="M5777 4489 c-43 -25 -47 -53 -47 -351 0 -251 2 -286 17 -308 36 -53
78 -63 134 -34 55 28 59 55 59 356 0 290 -1 297 -50 335 -18 15 -88 16 -113 2z"/>
<path d="M6105 4464 c-14 -6 -8 -590 6 -626 22 -55 94 -77 143 -44 46 30 55
62 57 207 1 130 1 134 -22 148 -79 49 -126 137 -133 247 -4 58 -8 69 -23 71
-10 1 -22 0 -28 -3z"/>
<path d="M8008 8234 c-96 -31 -168 -60 -168 -67 0 -7 27 -79 60 -161 33 -82
59 -150 58 -151 -2 -1 -21 -8 -43 -16 -101 -37 -47 -155 61 -134 75 14 102 79
68 165 -10 24 -13 45 -8 50 17 15 187 61 195 53 5 -5 12 -23 15 -41 5 -25 3
-32 -8 -32 -29 0 -68 -40 -68 -69 0 -71 105 -98 162 -41 25 25 30 37 25 63 -9
54 -159 437 -171 436 -6 0 -86 -25 -178 -55z m163 -109 c10 -27 19 -53 19 -57
0 -8 -199 -73 -203 -67 -2 2 -13 30 -25 62 -16 43 -18 59 -9 62 49 19 175 54
186 52 7 -1 22 -24 32 -52z"/>
<path d="M7274 8046 c-19 -19 -34 -43 -34 -54 0 -49 70 -60 107 -18 29 34 29
70 1 90 -31 22 -35 21 -74 -18z"/>
<path d="M2918 8015 c-25 -8 -69 -31 -98 -50 l-52 -35 -242 0 c-344 -1 -420
-14 -488 -87 -28 -30 -99 -146 -148 -243 -49 -98 -36 -170 28 -153 19 5 22 1
22 -29 0 -91 93 -130 221 -92 70 21 133 13 209 -24 116 -59 224 -162 281 -271
49 -94 60 -237 34 -422 -53 -378 -37 -639 56 -926 38 -116 85 -205 120 -226
24 -15 67 0 86 30 17 25 18 77 23 653 3 344 7 626 8 627 1 1 16 10 33 19 38
19 80 6 98 -32 8 -18 11 -262 11 -865 0 -925 -2 -890 62 -929 41 -25 65 -25
102 -1 57 38 55 14 56 703 0 392 4 647 10 663 13 33 55 50 90 35 57 -24 55 15
57 -855 2 -440 3 -811 3 -823 0 -14 15 -39 35 -59 31 -31 40 -35 72 -30 19 4
45 14 56 24 47 43 47 35 47 833 l0 751 -41 51 c-124 157 -158 331 -125 648 30
295 19 482 -39 637 l-24 63 28 15 c63 32 115 121 125 215 8 74 -5 156 -25 151
-8 -2 -39 -7 -70 -11 -62 -8 -92 -21 -131 -57 l-27 -25 -48 40 c-26 22 -73 53
-103 68 -48 25 -68 29 -160 31 -72 2 -120 -2 -152 -12z m71 -251 c62 -52 28
-154 -52 -154 -82 0 -118 91 -60 152 34 35 72 36 112 2z"/>
<path d="M7462 7871 c-37 -46 -39 -61 -14 -84 27 -25 59 -21 88 10 48 52 43
105 -12 111 -24 2 -36 -4 -62 -37z"/>
<path d="M5230 7820 c-18 -18 -20 -33 -20 -143 0 -116 1 -125 23 -145 30 -28
68 -28 95 1 20 21 22 34 22 145 0 109 -2 124 -20 142 -11 11 -33 20 -50 20
-17 0 -39 -9 -50 -20z"/>
<path d="M7642 7604 c-12 -8 -22 -23 -22 -33 0 -25 99 -254 113 -263 32 -21
87 7 87 42 0 26 -92 245 -108 258 -21 16 -43 15 -70 -4z"/>
<path d="M4942 7530 c-53 -22 -51 -100 4 -120 68 -26 123 45 77 98 -22 25 -51
33 -81 22z"/>
<path d="M8155 7331 c-79 -20 -140 -75 -160 -145 -13 -44 -13 -52 0 -72 33
-51 88 -38 105 25 6 23 24 51 42 66 28 24 38 27 87 23 47 -4 59 -10 88 -41 28
-31 33 -44 33 -86 0 -34 -6 -56 -22 -76 -27 -34 -16 -75 25 -89 23 -8 31 -6
57 19 40 38 65 118 56 178 -9 62 -60 135 -118 170 -50 31 -135 43 -193 28z"/>
<path d="M4700 7230 c-27 -27 -25 -66 6 -96 42 -43 104 -15 104 48 0 35 -32
68 -65 68 -14 0 -34 -9 -45 -20z"/>
<path d="M4524 6942 c-51 -34 -25 -122 35 -122 64 0 94 67 51 110 -20 20 -65
26 -86 12z"/>
<path d="M8512 4643 c-16 -6 -42 -57 -42 -82 0 -27 48 -79 81 -86 19 -5 34 0
57 20 42 35 45 93 7 130 -23 24 -69 32 -103 18z"/>
<path d="M8339 4140 l-30 -30 3 -171 c3 -166 4 -171 27 -190 32 -26 77 -24
106 6 25 24 25 27 25 190 0 92 -4 175 -10 185 -9 16 -58 40 -82 40 -5 0 -23
-13 -39 -30z"/>
<path d="M8528 3520 c-25 -26 -29 -36 -24 -63 13 -65 85 -89 131 -42 35 34 34
86 -1 114 -37 29 -70 26 -106 -9z"/>
<path d="M8009 3171 l-29 -29 0 -190 0 -190 31 -26 c38 -32 70 -33 106 -2 l28
24 3 182 c4 198 -2 230 -44 249 -40 18 -63 13 -95 -18z"/>
<path d="M8718 3113 c-26 -30 -30 -60 -13 -93 29 -55 93 -60 129 -8 22 30 20
60 -5 92 -25 32 -87 37 -111 9z"/>
<path d="M8344 3005 l-25 -25 3 -234 c3 -234 3 -235 28 -261 34 -36 94 -32
124 8 20 27 21 40 21 259 l0 230 -28 24 c-38 33 -90 32 -123 -1z"/>
<path d="M8721 2584 c-28 -35 -26 -69 4 -99 32 -33 60 -31 96 4 36 36 36 51 3
90 -33 40 -74 42 -103 5z"/>
<path d="M7900 2510 c-15 -27 -5 -55 24 -68 45 -20 89 41 54 76 -20 20 -66 15
-78 -8z"/>
</g>
</svg>
