<svg xmlns="http://www.w3.org/2000/svg" xmlns:xlink="http://www.w3.org/1999/xlink" xmlns:inkscape="http://www.inkscape.org/namespaces/inkscape" version="1.1" width="397.529" height="273.807" viewBox="0 0 397.529 273.807">
<defs>
<path id="font_0_19" d="M.4889984 .31877137C.4889984 .42585755 .47799684 .49090577 .44499208 .55496218 .40098573 .6430359 .31999208 .66503909 .2649994 .66503909 .13899231 .66503909 .09298706 .5709839 .07899475 .5429535 .042999269 .4698944 .040985109 .3708191 .040985109 .31877137 .040985109 .25271607 .04399109 .15162659 .09199524 .07156372 .13798523-.0024871827 .21199036-.021484375 .2649994-.021484375 .31298829-.021484375 .39898683-.0064849855 .44898988 .09257507 .48599244 .16464234 .4889984 .2537079 .4889984 .31877137M.3999939 .33078004C.3999939 .27172853 .3999939 .18165589 .3880005 .12561035 .36698915 .020523072 .2979889 .006515503 .2649994 .006515503 .23098755 .006515503 .1619873 .022521973 .14099121 .12760926 .12998963 .18466187 .12998963 .2787323 .12998963 .33078004 .12998963 .3998413 .12998963 .4698944 .14099121 .5249481 .1619873 .6270294 .23999024 .6370239 .2649994 .6370239 .29899598 .6370239 .36799623 .62002566 .3880005 .5289459 .3999939 .4738922 .3999939 .39883424 .3999939 .33078004Z"/>
<path id="font_1_1" d="M.20298767 .054992677C.20298767 .08898926 .1749878 .11099243 .147995 .11099243 .115997318 .11099243 .09199524 .084991458 .09199524 .055999757 .09199524 .021987915 .11999512 0 .14698792 0 .1789856 0 .20298767 .025985718 .20298767 .054992677Z"/>
<path id="font_0_5" d="M.47698976 .19924927C.47698976 .31576539 .3929901 .4189453 .2749939 .4189453 .22499085 .4189453 .17799378 .40293885 .13999939 .36886598V.5618439C.15299988 .55784609 .19299317 .54785159 .23498535 .54785159 .3600006 .54785159 .43598939 .63586428 .43598939 .6509552 .43598939 .6620178 .42900086 .66503909 .42399598 .66503909 .42399598 .66503909 .41999818 .66503909 .41099549 .66000369 .37199403 .6449127 .32598878 .632843 .27198792 .632843 .21299744 .632843 .1639862 .64793398 .1329956 .66000369 .12298584 .66503909 .11999512 .66503909 .11999512 .66503909 .10699463 .66503909 .10699463 .6539612 .10699463 .63586428V.34277345C.10699463 .32476808 .10699463 .3127594 .12298584 .3127594 .1309967 .3127594 .13398743 .31677247 .13899231 .32476808 .15098572 .33976747 .18899536 .39093019 .27398683 .39093019 .32998658 .39093019 .35699464 .34477235 .3659973 .3257599 .3829956 .2896576 .3849945 .24345398 .3849945 .20426941 .3849945 .16725159 .38398744 .11325073 .35598756 .069366458 .33699037 .03942871 .29699708 .008514404 .24398804 .008514404 .1789856 .008514404 .114990238 .04940796 .09199524 .11425781 .09498596 .11387634 .101989749 .11387634 .101989749 .11387634 .12998963 .11387634 .1519928 .13188172 .1519928 .16288758 .1519928 .19989014 .12298584 .21289063 .102996829 .21289063 .084991458 .21289063 .052993776 .20288086 .052993776 .15988159 .052993776 .069732669 .1309967-.021484375 .24598694-.021484375 .37098695-.021743775 .47698976 .07525635 .47698976 .19924927Z"/>
<path id="font_0_11" d="M.44699098 0V.032989503H.4119873C.31698609 .032989503 .31399537 .04499817 .31399537 .08203125V.6371765C.31399537 .664032 .31199647 .66503909 .2849884 .66503909 .24398804 .6252289 .19099427 .6013489 .09599304 .6013489V.5683594C.12298584 .5683594 .1769867 .5683594 .23498535 .5953522V.08203125C.23498535 .04499817 .23199463 .032989503 .13699341 .032989503H.101989749V0C.14299011 .0029907227 .22898865 .0029907227 .27398683 .0029907227 .31900025 .0029907227 .4059906 .0029907227 .44699098 0Z"/>
<path id="font_0_17" d="M.47698976 .17900086H.44599916C.44299317 .15899658 .43499757 .10899353 .4229889 .08999634 .4169922 .08198547 .34098817 .08198547 .32499696 .08198547H.14698792L.28199769 .20399475C.2979889 .2190094 .33999635 .2519989 .35598756 .26600648 .41799928 .3230133 .47698976 .37802125 .47698976 .46902467 .47698976 .58802798 .3769989 .66503909 .2519989 .66503909 .13198853 .6651764 .052993776 .574173 .052993776 .48516847 .052993776 .4361725 .09199524 .4291687 .10598755 .4291687 .1269989 .4291687 .1579895 .4441681 .1579895 .48217774 .1579895 .5341797 .10798645 .5341797 .09599304 .5341797 .125 .6070709 .19198609 .6320343 .24099732 .6320343 .33399964 .6320343 .38198854 .55314639 .38198854 .46917726 .38198854 .36517335 .30899049 .2891693 .19099427 .16816712L.06498718 .03817749C.052993776 .026992798 .052993776 .024993897 .052993776 0H.44799806L.47698976 .17900086Z"/>
<path id="font_0_16" d="M.48599244 .17131043C.48599244 .25431825 .41999818 .330307 .31799317 .35231019 .39698792 .38031007 .45599366 .44831849 .45599366 .5283203 .45599366 .6080475 .3659973 .66503909 .2619934 .66503909 .15499878 .66503909 .07398987 .6070404 .07398987 .53105166 .07398987 .49404908 .09899902 .4780426 .125 .4780426 .1559906 .4780426 .17599488 .5000458 .17599488 .52905276 .17599488 .56604006 .14399719 .5800476 .12199402 .5810547 .1639862 .6360321 .24099732 .6390381 .25898744 .6390381 .2849884 .63931277 .36099244 .63131716 .36099244 .5283203 .36099244 .458313 .33198548 .41630555 .31799317 .40031434 .28799439 .36930848 .2649994 .36730958 .20399475 .36331178 .18499756 .36231996 .1769867 .36131288 .1769867 .34831239 .1769867 .3343048 .18598938 .3343048 .20298767 .3343048H.25299073C.33198548 .3343048 .38198854 .27630616 .38198854 .17131043 .38198854 .045440675 .31098939 .008514404 .2579956 .008514404 .20298767 .008514404 .12799073 .0284729 .09298706 .08137512 .1289978 .08137512 .1539917 .10437012 .1539917 .13737488 .1539917 .16937256 .1309967 .19238281 .09899902 .19238281 .07199097 .19238281 .04399109 .17536927 .04399109 .13537598 .04399109 .04045105 .1459961-.021484375 .2599945-.021484375 .3929901-.021484375 .48599244 .070388797 .48599244 .17037964V.17131043Z"/>
<path id="font_0_6" d="M.5 .1640625V.197052H.3939972V.64682009C.3939972 .6668091 .3939972 .6748047 .37298585 .6748047 .3600006 .6748047 .35899354 .6737976 .34899903 .6598053L.02999878 .197052V.1640625H.31199647V.08100891C.31199647 .04399109 .30899049 .032989503 .23199463 .032989503H.20899964V0L.35299684 .0029907227 .49699403 0V.032989503H.47399903C.39698792 .032989503 .3939972 .04399109 .3939972 .08100891V.1640625H.5M.31900025 .197052H.06498718L.31900025 .56585696V.197052Z"/>
<path id="font_2_1" d="M.20298767 .25030519C.20298767 .28430177 .17599488 .30630494 .147995 .30630494 .11399841 .30630494 .09199524 .27931214 .09199524 .25131227 .09199524 .21730042 .11898804 .1953125 .14698792 .1953125 .18099976 .1953125 .20298767 .2223053 .20298767 .25030519Z"/>
<path id="font_3_1" d="M.5469971 .20376587C.5469971 .23777771 .54299929 .30177308 .48199464 .3587799 .44699098 .3907776 .40299989 .42578126 .31799317 .42578126 .24798584 .42578126 .19699097 .3897705 .16299439 .33078004 .1639862 .38076783 .1659851 .46383668 .20098877 .52589419 .24499512 .6018219 .31098939 .63183596 .37098695 .63183596 .3939972 .63183596 .43998719 .6278229 .46398927 .599823 .4269867 .5939026 .42099 .5679016 .42099 .55189517 .42099 .52589419 .43899537 .50390627 .46899415 .50390627 .49899293 .50390627 .5179901 .52290347 .5179901 .55389407 .5179901 .61502078 .47200013 .66503909 .36999513 .66503909 .21499634 .66503909 .06298828 .529953 .06298828 .31677247 .06298828 .07356262 .17599488-.021484375 .30799867-.021484375 .34700013-.021484375 .4149933-.015487671 .47599793 .043533327 .5079956 .07556152 .5469971 .115600589 .5469971 .20367432V.20376587M.44699098 .20367432C.44699098 .13461304 .44499208 .10058594 .41099549 .060546876 .3869934 .030517579 .35499574 .014511108 .30699159 .014511108 .1659851 .014770508 .1659851 .18676758 .1659851 .22576905 .1659851 .31176759 .22299195 .3937683 .31298829 .3937683 .36499024 .3937683 .394989 .37277223 .4189911 .34077455 .44699098 .30177308 .44699098 .2567749 .44699098 .20376587V.20367432Z"/>
<path id="font_0_15" d="M.48599244 .20263672C.48599244 .33372499 .3869934 .42578126 .27598573 .42578126 .20399475 .42578126 .16099549 .37976075 .13798523 .33073426 .13798523 .41377259 .14498902 .4868164 .18099976 .54782107 .21099854 .5978241 .2619934 .6390381 .32499696 .6390381 .34498597 .6390381 .3909912 .63601687 .4139862 .60084536 .36898805 .5988312 .36499024 .5648346 .36499024 .553833 .36499024 .5238342 .3880005 .50683596 .4119873 .50683596 .42999269 .50683596 .45899964 .51782229 .45899964 .5558319 .45899964 .615921 .4139862 .66503909 .32398988 .66503909 .18499756 .66503909 .04399109 .53282168 .04399109 .31672669 .04399109 .045532228 .16999817-.021484375 .2669983-.021484375 .31498719-.021224976 .36698915-.008224487 .4119873 .03477478 .45199586 .073776248 .48599244 .11578369 .48599244 .20277405V.20263672M.3919983 .20378113C.3919983 .152771 .3919983 .10877991 .37199403 .072784427 .34599305 .026779175 .31098939 .0087890629 .2669983 .0087890629 .21398926 .0087890629 .18099976 .045776369 .1659851 .073776248 .14299011 .118774417 .14099121 .18678284 .14099121 .22477722 .14099121 .32377626 .19499207 .3977661 .27198792 .3977661 .32199098 .3977661 .35198976 .37176515 .37098695 .33677674 .3919983 .29977418 .3919983 .254776 .3919983 .20378113Z"/>
<path id="font_0_4" d="M.48599244 .16799927C.48599244 .23098755 .45199586 .272995 .43598939 .2899933 .4189911 .30599977 .41799928 .30699159 .33198548 .36099244 .3880005 .388031 .45599366 .43803407 .45599366 .516037 .45599366 .6110382 .35899354 .66503909 .2659912 .66503909 .1599884 .66503909 .07398987 .59202578 .07398987 .49803163 .07398987 .46102906 .08699036 .42703248 .11199951 .3980255 .1289978 .37702943 .1329956 .37503053 .19499207 .33602906 .070999149 .28050233 .04399109 .20750427 .04399109 .15150452 .04399109 .041503908 .15499878-.021484375 .2639923-.021484375 .3869934-.021484375 .48599244 .06150818 .48599244 .16751099V.16799927M.4059906 .5155029C.4059906 .45750428 .36099244 .4085083 .3019867 .37950135L.1769867 .45451356C.147995 .4718933 .12399292 .5009155 .12399292 .5359497 .12399292 .598999 .19299317 .6390381 .2639923 .6390381 .34199525 .6390381 .4059906 .5859833 .4059906 .5159302V.5155029M.42900086 .13360596C.42900086 .056549074 .34799195 .008514404 .2659912 .008514404 .1769867 .008987427 .100997928 .069992069 .100997928 .1519928 .100997928 .22698975 .15699768 .28599549 .22599793 .31799317L.36099244 .23498535C.3769989 .22599793 .42900086 .19400025 .42900086 .13398743V.13360596Z"/>
<clipPath id="clip_4">
<path transform="matrix(1,0,0,-1,40.331,241.04203)" d="M0 0H352.0227V210.29419H0Z"/>
</clipPath>
<path id="font_5_3" d="M.72698977 .33580018C.72698977 .52568057 .58799746 .6826172 .4119873 .6826172H.039993287V.6516113H.06298828C.13999939 .6516113 .14199829 .64060977 .14199829 .6036377V.07896423C.14199829 .041992189 .13999939 .0309906 .06298828 .0309906H.039993287V0H.4119873C.58499148 0 .72698977 .1479187 .72698977 .33580018M.6279907 .33580018C.6279907 .29483033 .6279907 .18989563 .57299807 .11993408 .5209961 .051986696 .44898988 .0309906 .38598634 .0309906H.27799989C.23098755 .0309906 .22898865 .037994386 .22898865 .07196045V.6106262C.22898865 .64460757 .23098755 .6516113 .27799989 .6516113H.3849945C.48199464 .6516113 .5419922 .6006317 .56900027 .56466677 .61299136 .5066986 .6279907 .43473817 .6279907 .33580018Z"/>
<path id="font_5_1" d="M.49699403 .089141849V.14515686H.46899415V.090148929C.46899415 .07914734 .46899415 .029129029 .43299867 .029129029 .39698792 .029129029 .39698792 .07714844 .39698792 .09315491V.26818849C.39698792 .32521058 .39698792 .3592224 .35198976 .40022279 .31498719 .43322755 .2669983 .4482422 .21699524 .4482422 .1329956 .4482422 .06298828 .40623475 .06298828 .34220887 .06298828 .311203 .083999637 .2942047 .10998535 .2942047 .13699341 .2942047 .1559906 .31420899 .1559906 .34020997 .1559906 .3832245 .11099243 .38822938 .11099243 .38822938 .13798523 .41423036 .18598938 .42323304 .21499634 .42323304 .2659912 .42323304 .32299806 .3852234 .32299806 .29719544V.26419068C.2689972 .26219178 .19400025 .2571869 .1269989 .22518921 .054992677 .19017029 .032989503 .13816834 .032989503 .09814453 .032989503 .01625061 .12998963-.0107421879 .19699097-.0107421879 .27999879-.0107421879 .31799317 .04425049 .33198548 .072250369 .33699037 .030136109 .3659973-.005859375 .40899659-.005859375 .43399049-.005859375 .49699403 .009140015 .49699403 .08912659V.089141849M.32299806 .14112854C.32299806 .04425049 .24798584 .014251709 .20399475 .014251709 .15699768 .014251709 .11299133 .04824829 .11299133 .098236087 .11299133 .16423035 .16999817 .23422241 .32299806 .24023438V.14112854Z"/>
<path id="font_5_14" d="M.34199525 .12408447V.18099976H.31399537V.1270752C.31399537 .05319214 .2829895 .01725769 .24699402 .01725769 .17999268 .01725769 .17999268 .1051178 .17999268 .12309265V.3996582H.32499696V.43066407H.17999268V.6142578H.1519928C.15098572 .5304413 .115997318 .42765809 .018997193 .4246521V.3996582H.10598755V.12408447C.10598755 .012252808 .18699646-.0107421879 .23999024-.0107421879 .30699159-.011001587 .34199525 .052993776 .34199525 .12399292V.12408447Z"/>
<path id="font_5_13" d="M.36999513 .12831116C.36999513 .17330933 .34999085 .20030213 .32798768 .22329712 .2939911 .25628663 .2579956 .26327516 .18399048 .2772827 .1579895 .28227235 .084991458 .29527284 .084991458 .35224916 .084991458 .38424684 .10798645 .426239 .19898987 .426239 .30699159 .426239 .31399537 .34326173 .31599427 .31826783 .31698609 .3062744 .31698609 .3002777 .32998658 .3002777 .34399415 .3002777 .34399415 .30726625 .34399415 .32626344V.4222412C.34399415 .4392395 .34399415 .4482422 .33198548 .4482422 .32699586 .4482422 .32499696 .4482422 .31199647 .43623353 .30999757 .43423463 .30099488 .42523194 .29499818 .4202423 .2639923 .44223023 .23298645 .4482422 .19898987 .4482422 .066986087 .4482422 .033996583 .37524415 .033996583 .32426454 .033996583 .29226686 .04798889 .26628114 .070999149 .24429322 .10499573 .21330261 .14299011 .20629883 .19400025 .19729615 .24499512 .18730164 .2619934 .18431092 .28399659 .16731262 .2939911 .15931702 .31900025 .14031983 .31900025 .10229492 .31900025 .014251709 .21798706 .014251709 .20399475 .014251709 .101989749 .014251709 .07598877 .0993042 .06399536 .15332031 .06098938 .16331482 .05999756 .16931153 .04798889 .16931153 .033996583 .16931153 .033996583 .16131592 .033996583 .14331055V.01524353C.033996583-.0017547608 .033996583-.0107421879 .04598999-.0107421879 .051986696-.0107421879 .052993776-.009750366 .070999149 .009246826 .07499695 .01524353 .085998538 .028259278 .09098816 .03326416 .1329956-.007751465 .1789856-.0107421879 .20399475-.0107421879 .32699586-.0107421879 .36999513 .061279298 .36999513 .12831116Z"/>
<path id="font_5_18" d="M.25299073 0V.0309906C.18798828 .0309906 .18399048 .035995485 .18399048 .075042728V.4423828L.039993287 .43066407V.3996582C.10398865 .3996582 .11299133 .3936615 .11299133 .3447113V.07695007C.11299133 .0309906 .101989749 .0309906 .035995485 .0309906V0C.08099365 .0019989014 .101989749 .0029907227 .1459961 .0029907227 .1619873 .0029907227 .20399475 .0029907227 .25299073 0M.19699097 .6032257C.19699097 .6332245 .17298889 .65722659 .14299011 .65722659 .11299133 .65722659 .08898926 .6332245 .08898926 .6032257 .08898926 .57321169 .11299133 .54922488 .14299011 .54922488 .17298889 .54922488 .19699097 .57321169 .19699097 .6032257Z"/>
<path id="font_5_17" d="M.41299439 .18984986H.3849945C.375 .078948978 .3619995 .027999878 .23699951 .027999878H.11999512L.40098573 .39866639C.4099884 .4096527 .4099884 .4116516 .4099884 .4156494 .4099884 .43066407 .3999939 .43066407 .3829956 .43066407H.053985597L.042999269 .26678468H.070999149C.07699585 .36868287 .09498596 .4056549 .20799256 .4056549H.31999208L.037994386 .033981325C.0289917 .022994996 .0289917 .020996094 .0289917 .015991211 .0289917 0 .037994386 0 .055999757 0H.3959961L.41299439 .18984986Z"/>
<path id="font_5_5" d="M.4269867 .11936951C.4269867 .12637329 .42199708 .13237 .41299439 .13237 .40299989 .13237 .3999939 .12536621 .39898683 .12136841 .36499024 .019256592 .27598573 .01725769 .26098634 .01725769 .21299744 .01725769 .17199707 .044281007 .14898682 .078323367 .115997318 .12736511 .114990238 .18743897 .114990238 .22949219H.3999939C.42199708 .22949219 .4269867 .22949219 .4269867 .25048829 .4269867 .35333253 .37098695 .4482422 .24299622 .4482422 .12298584 .4482422 .0289917 .3443451 .0289917 .22047425 .0289917 .08932495 .13398743-.0107421879 .2559967-.0107421879 .37799073-.0107421879 .4269867 .096343997 .4269867 .11936951M.35899354 .253479H.115997318C.125 .40725709 .21499634 .42323304 .24299622 .42323304 .2979889 .42323304 .35798646 .38130189 .35899354 .253479Z"/>
<path id="font_5_11" d="M.34098817-.23803711C.34098817-.23303223 .33799745-.23002625 .33198548-.22303772 .20298767-.105026248 .1639862 .07498169 .1639862 .24998474 .1639862 .40498353 .19400025 .59298709 .33499146 .72698977 .33898927 .73098757 .34098817 .7339783 .34098817 .73898318 .34098817 .74598696 .33599855 .75 .32899476 .75 .31698609 .75 .22698975 .6779785 .17298889 .568985 .125 .47297669 .100997928 .36997987 .100997928 .25097657 .100997928 .17897034 .10998535 .064971927 .16499329-.053024293 .22399903-.17602539 .31698609-.24902344 .32899476-.24902344 .33599855-.24902344 .34098817-.24502564 .34098817-.23803711Z"/>
<path id="font_5_8" d="M.5469971 0V.0309906C.49598695 .03125 .47099305 .03125 .46998597 .0622406V.25431825C.46998597 .3373413 .46998597 .36636354 .44198609 .4013672 .4189911 .42938233 .3809967 .4423828 .33099366 .4423828 .23799134 .4423828 .19499207 .37335206 .18099976 .34535218H.17999268V.4423828L.034988405 .43066407V.3996582C.102996829 .3996582 .11199951 .39266969 .11199951 .34370423V.07695007C.11199951 .0309906 .100997928 .0309906 .034988405 .0309906V0C.08198547 .0019989014 .100997928 .0029907227 .14898682 .0029907227 .19699097 .0029907227 .20999146 .0019989014 .2630005 0V.0309906C.19699097 .0309906 .18598938 .0309906 .18598938 .07695007V.25878907C.18598938 .36532594 .26098634 .41737367 .32398988 .41737367 .3829956 .41737367 .3959961 .3683319 .3959961 .30825807V.077041629C.3959961 .0309906 .3849945 .0309906 .31900025 .0309906V0C.3659973 .0019989014 .3849945 .0029907227 .43299867 .0029907227 .48098756 .0029907227 .49398805 .0019989014 .5469971 0Z"/>
<path id="font_5_7" d="M.83299258 0V.0309906C.7819977 .03125 .7569885 .03125 .7559967 .0622406V.2539215C.7559967 .34077455 .7559967 .36872865 .72299197 .4056549 .70199587 .43037416 .6619873 .4423828 .6159973 .4423828 .5439911 .4423828 .49499513 .40037538 .46699525 .3473816 .45498658 .40637208 .4149933 .4423828 .33099366 .4423828 .25099183 .4423828 .20199585 .39038087 .18099976 .3443756H.17999268V.4423828L.034988405 .43066407V.3996582C.102996829 .3996582 .11199951 .39266969 .11199951 .34370423V.07695007C.11199951 .0309906 .100997928 .0309906 .034988405 .0309906V0C.08198547 .0019989014 .100997928 .0029907227 .14898682 .0029907227 .19699097 .0029907227 .20999146 .0019989014 .2630005 0V.0309906C.19699097 .0309906 .18598938 .0309906 .18598938 .07695007V.25878907C.18598938 .36732484 .2639923 .41737367 .32398988 .41737367 .3789978 .41737367 .39698792 .37834168 .39698792 .30825807V.077041629C.39698792 .0309906 .38598634 .0309906 .31999208 .0309906V0C.36698915 .0019989014 .38598634 .0029907227 .43399049 .0029907227 .48199464 .0029907227 .49499513 .0019989014 .5479889 0V.0309906C.48199464 .0309906 .47099305 .0309906 .47099305 .077041629V.2592163C.47099305 .36732484 .548996 .41737367 .60899356 .41737367 .6639862 .41737367 .6819916 .37834168 .6819916 .30825807V.077041629C.6819916 .0309906 .67099 .0309906 .6049957 .0309906V0C.6519928 .0019989014 .67099 .0029907227 .71899417 .0029907227 .7669983 .0029907227 .7799988 .0019989014 .83299258 0Z"/>
<path id="font_5_10" d="M.5359955 .21655274C.5359955 .3425598 .43798829 .4423828 .31999208 .4423828 .2659912 .4423828 .21598816 .42037965 .17799378 .37956239V.4423828L.02999878 .43066407V.3996582C.100997928 .3996582 .10699463 .39390565 .10699463 .3515625V-.116989139C.10699463-.16308594 .09599304-.16308594 .02999878-.16308594V-.1940918C.07699585-.1920929 .09599304-.19110108 .14399719-.19110108 .19198609-.19110108 .20498657-.1920929 .2579956-.1940918V-.16308594C.19198609-.16308594 .18099976-.16308594 .18099976-.116989139V.04827881C.20698548 .022262574 .24099732-.0107421879 .30699159-.0107421879 .42599488-.0107421879 .5359955 .08531189 .5359955 .21643067V.21655274M.44999696 .21643067C.44999696 .10232544 .38198854 .014251709 .30099488 .014251709 .2559967 .014251709 .21798706 .040267946 .19400025 .075302127 .18099976 .095321658 .18099976 .09732056 .18099976 .11634827V.33654786C.21499634 .39437867 .269989 .41436769 .31199647 .41436769 .3899994 .41436769 .44999696 .32437135 .44999696 .21636963V.21643067Z"/>
<path id="font_5_6" d="M.26098634 0V.0309906C.19499207 .0309906 .18399048 .0309906 .18399048 .07701111V.69433596L.035995485 .6826172V.6516113C.10398865 .6516113 .11299133 .64460757 .11299133 .5956421V.07696533C.11299133 .0309906 .101989749 .0309906 .035995485 .0309906V0C.08299255 .0019989014 .101989749 .0029907227 .147995 .0029907227 .19499207 .0029907227 .21199036 .0019989014 .26098634 0Z"/>
<path id="font_5_12" d="M.2979889 .25097657C.2979889 .3329773 .28599549 .4429779 .23399353 .5539856 .1749878 .6769867 .08198547 .75 .069992069 .75 .05999756 .75 .057998659 .74198916 .057998659 .73898318 .057998659 .7339783 .05999756 .73098757 .066986087 .72398379 .125 .6719818 .23498535 .5359802 .23498535 .25097657 .23498535 .10797119 .20899964-.091033939 .06399536-.22602844 .06199646-.22903443 .057998659-.23303223 .057998659-.23803711 .057998659-.24102783 .05999756-.24902344 .069992069-.24902344 .08198547-.24902344 .17199707-.17703247 .22599793-.06802368 .27398683 .02796936 .2979889 .13098145 .2979889 .25097657Z"/>
<path id="font_5_4" d="M.6689911 .2579193H.6409912C.6159973 .10296631 .58999636 .0309906 .4189911 .0309906H.2789917C.23199463 .0309906 .22999573 .037994386 .22999573 .07197571V.33789063H.32299806C.42099 .33789063 .43299867 .30690003 .43299867 .220932H.46099855V.48606874H.43299867C.43299867 .39994813 .42099 .36888124 .32299806 .36888124H.22999573V.6077728C.22999573 .6416931 .23199463 .64868167 .2789917 .64868167H.41299439C.56900027 .64868167 .5970001 .59480288 .61299136 .45507813H.6409912L.61299136 .6796875H.037994386V.64868167H.06098938C.13798523 .64868167 .13999939 .6377106 .13999939 .60079959V.07899475C.13999939 .041992189 .13798523 .0309906 .06098938 .0309906H.037994386V0H.6259918L.6689911 .2579193Z"/>
<path id="font_5_16" d="M.5279999 0V.0309906C.48799134 .0309906 .45799256 .0309906 .43598939 .05897522L.30499269 .22491455C.2979889 .23390198 .2979889 .23590088 .2979889 .23590088 .2979889 .23590088 .37599183 .33285523 .38398744 .3408661 .4149933 .37483216 .44898988 .39866639 .5099945 .3996582V.43066407C.48098756 .42765809 .45399476 .42765809 .4249878 .42765809 .3869934 .42765809 .36898805 .42765809 .32899476 .43066407V.3996582C.34399415 .39767457 .35699464 .38972474 .35699464 .3698578 .35699464 .35386659 .34799195 .342865 .34298707 .3368683L.2789917 .2578888 .20098877 .3568573C.19400025 .36586 .19198609 .3678589 .19198609 .37483216 .19198609 .38674928 .20298767 .39866639 .22599793 .3996582V.43066407C.18798828 .4286499 .1619873 .42765809 .116989139 .42765809 .116989139 .42765809 .057998659 .42765809 .018997193 .43066407V.3996582C.08799744 .3996582 .08999634 .39767457 .13598633 .3388672L.23899842 .20991516 .14199829 .0929718C.09199524 .032989503 .034988405 .0309906 .01399231 .0309906V0C.042999269 .0029907227 .069992069 .0029907227 .09899902 .0029907227 .1309967 .0029907227 .16299439 .0019989014 .19499207 0V.0309906C.16999817 .033996583 .16699219 .050979616 .16699219 .06097412 .16699219 .0639801 .16699219 .07797241 .18199158 .095962528 .20599365 .12695313 .23199463 .15693665 .25698854 .18692017L.33599855 .08596802C.35499574 .0639801 .35499574 .0619812 .35499574 .055984498 .35499574 .04498291 .34498597 .03199768 .32099916 .0309906V0C.36299134 .0019989014 .3869934 .0029907227 .42999269 .0029907227 .42999269 .0029907227 .4889984 .0029907227 .5279999 0Z"/>
<path id="font_5_2" d="M.4269867 .11936951C.4269867 .13139344 .41600038 .13139344 .41299439 .13139344 .4019928 .13139344 .4019928 .12937927 .3959961 .11236572 .37298585 .043289186 .31698609 .01725769 .2659912 .01725769 .20199585 .01725769 .11999512 .06932068 .11999512 .21749878 .11999512 .3735962 .19999695 .42022706 .2599945 .42022706 .272995 .42022706 .32699586 .41825868 .3639984 .39356996 .34298707 .3895874 .32299806 .3755951 .32299806 .34658814 .32299806 .32058717 .34298707 .30059815 .36898805 .30059815 .394989 .30059815 .41600038 .31759645 .41600038 .34858705 .41600038 .4103546 .34599305 .4482422 .2579956 .4482422 .12998963 .4482422 .033996583 .3415985 .033996583 .2164917 .033996583 .08734131 .13798523-.0107421879 .2559967-.0107421879 .394989-.0107421879 .4269867 .11036682 .4269867 .11936951Z"/>
<path id="font_5_15" d="M.5469971 .00024414063V.03125C.47898866 .03125 .46998597 .038253786 .46998597 .087265018V.4423828L.31900025 .43138124V.40037538C.3869934 .40037538 .3959961 .39337159 .3959961 .34436036V.16729737C.3959961 .07826233 .34599305 .014251709 .27398683 .014251709 .19099427 .014251709 .18598938 .057266237 .18598938 .11128235V.4423828L.034988405 .43138124V.40037538C.11199951 .40037538 .11199951 .39736939 .11199951 .3083496V.15829468C.11199951 .09327698 .11199951 .051254274 .1579895 .01625061 .18699646-.003753662 .22799683-.0107421879 .2679901-.0107421879 .31999208-.0107421879 .36898805 .012252808 .397995 .072265628H.39898683V-.0107421879L.5469971 .00024414063Z"/>
<path id="font_5_9" d="M.48399354 .21324158C.48399354 .34423829 .37998963 .4482422 .25698854 .4482422 .12998963 .4482422 .0289917 .3412323 .0289917 .21324158 .0289917 .08824158 .1329956-.0107421879 .2559967-.0107421879 .3829956-.0107421879 .48399354 .09024048 .48399354 .21324158M.397995 .22224427C.397995 .1852417 .397995 .12724304 .37298585 .08325195 .34498597 .037246705 .29899598 .01725769 .25698854 .01725769 .20698548 .01725769 .16499329 .042251588 .14199829 .08125305 .115997318 .12324524 .114990238 .17623902 .114990238 .22224427 .114990238 .25924684 .114990238 .3162384 .13999939 .35723878 .16999817 .40823365 .21998596 .42323304 .2559967 .42323304 .31298829 .42323304 .35398866 .39123536 .37399293 .35723878 .39698792 .31523133 .397995 .26423646 .397995 .22224427Z"/>
<path id="font_6_2" d="M.7659912 .22724915C.7659912 .24725342 .7589874 .2482605 .74198916 .2482605 .72898867 .2482605 .7200012 .2482605 .71899417 .23124695 .71199038 .09724426 .59098818 .036254884 .48999024 .036254884 .4119873 .036254884 .32798768 .060256959 .27598573 .12124634 .22898865 .17825318 .21699524 .25325013 .21699524 .34326173 .21699524 .39926148 .21998596 .5072632 .2829895 .57325747 .34799195 .63926699 .43499757 .6502533 .4869995 .6502533 .59498599 .6502533 .6899872 .5742645 .71199038 .44725038 .71499636 .42825318 .71598818 .42625428 .7389984 .42625428 .7649994 .42625428 .7659912 .42825318 .7659912 .45425416V.6692505C.7659912 .68826296 .7659912 .6972656 .7480011 .6972656 .7389984 .6972656 .7369995 .69525149 .72898867 .68826296L.6629944 .6292572C.6009979 .67926028 .5339966 .6972656 .46598817 .6972656 .21699524 .6972656 .06399536 .54826357 .06399536 .34326173 .06399536 .13824463 .21699524-.0107421879 .46598817-.0107421879 .6529999-.0107421879 .7659912 .11225891 .7659912 .22724915Z"/>
<path id="font_6_11" d="M.5419922 .21812439C.5419922 .35212709 .44999696 .453125 .2869873 .453125 .12298584 .453125 .03199768 .35112 .03199768 .21812439 .03199768 .09413147 .11999512-.005859375 .2869873-.005859375 .45498658-.005859375 .5419922 .09512329 .5419922 .21812439M.4139862 .22912598C.4139862 .14213562 .4139862 .03413391 .2869873 .03413391 .1599884 .03413391 .1599884 .14213562 .1599884 .22912598 .1599884 .27412416 .1599884 .32511903 .1769867 .3591156 .19599915 .39611817 .23799134 .41711427 .2869873 .41711427 .32899476 .41711427 .37098695 .40112306 .3929901 .36611939 .4139862 .3321228 .4139862 .27713014 .4139862 .22912598Z"/>
<path id="font_6_9" d="M.93499758 0V.04699707H.8659973V.30613709C.8659973 .40919496 .8149872 .4501953 .71199038 .4501953 .62098696 .4501953 .56900027 .40019227 .54299929 .3541565 .522995 .44718934 .43099977 .4501953 .3929901 .4501953 .30599977 .4501953 .24899292 .40518189 .21699524 .3421631V.4501953L.04499817 .4423828V.39537049C.10699463 .39537049 .11399841 .39537049 .11399841 .3563385V.04699707H.04499817V0L.17098999 .0029907227 .29699708 0V.04699707H.22799683V.2562256C.22799683 .3653412 .31498719 .41436769 .3769989 .41436769 .41099549 .41436769 .43299867 .39437867 .43299867 .31729127V.04699707H.3639984V0L.48999024 .0029907227 .6159973 0V.04699707H.5469971V.2562256C.5469971 .3653412 .6339874 .41436769 .69599917 .41436769 .7299957 .41436769 .7519989 .39437867 .7519989 .31729127V.04699707H.68299868V0L.8089905 .0029907227 .93499758 0Z"/>
<path id="font_6_12" d="M.59999087 .22319031C.59999087 .3561859 .5089874 .4501953 .36499024 .4501953 .2899933 .4501953 .23699951 .41918946 .21398926 .40118409V.4501953L.036987306 .4423828V.39537049C.09899902 .39537049 .10598755 .39537049 .10598755 .3573761V-.14648438H.036987306V-.1934967L.16299439-.19049073 .2889862-.1934967V-.14648438H.21998596V.03945923C.2630005 .004135132 .30699159-.005859375 .34799195-.005859375 .49798585-.005859375 .59999087 .08413696 .59999087 .22312927V.22319031M.47200013 .22312927C.47200013 .08213806 .4019928 .030136109 .33699037 .030136109 .32299806 .030136109 .27598573 .030136109 .23098755 .08413696 .21998596 .09713745 .21998596 .09812927 .21998596 .117126468V.32913209C.21998596 .34814454 .22099304 .3491516 .23498535 .36314393 .2749939 .4041443 .32699586 .41015626 .34899903 .41015626 .41600038 .41015626 .47200013 .3491516 .47200013 .22314453V.22312927Z"/>
<path id="font_6_1" d="M.5529938 .023986817C.5529938 .04699707 .5399933 .04699707 .5269928 .04699707 .46598817 .04798889 .46598817 .06100464 .46598817 .083999637V.29907228C.46598817 .3881073 .394989 .453125 .24598694 .453125 .18899536 .453125 .066986087 .44911195 .066986087 .36109925 .066986087 .3170929 .101989749 .29808045 .1289978 .29808045 .1599884 .29808045 .19198609 .3190918 .19198609 .36109925 .19198609 .39111329 .17298889 .40811158 .16999817 .41011048 .19799805 .41612245 .22999573 .41711427 .24198914 .41711427 .31698609 .41711427 .35198976 .3751068 .35198976 .29907228V.26506043C.2809906 .2620697 .026992798 .25306703 .026992798 .10801697 .026992798 .012130737 .15098572-.005859375 .21998596-.005859375 .2999878-.005859375 .34700013 .035125734 .36898805 .07713318 .36898805 .04598999 .36898805 0 .47299195 0H.5209961C.54100039 0 .5529938 0 .5529938 .023986817M.35198976 .13899231C.35198976 .043151857 .2599945 .030136109 .23498535 .030136109 .18399048 .030136109 .14399719 .06517029 .14399719 .10922241 .14399719 .21734619 .3019867 .23136902 .35198976 .234375V.13899231Z"/>
<path id="font_6_15" d="M.44198609 .36819459C.44198609 .42118836 .3880005 .4501953 .33599855 .4501953 .2659912 .4501953 .22599793 .40019227 .20298767 .33718873V.4501953L.036987306 .4423828V.39537049C.09899902 .39537049 .10598755 .39537049 .10598755 .3563385V.04699707H.036987306V0L.16299439 .0029907227C.20098877 .0029907227 .2649994 .0029907227 .30099488 0V.04699707H.21398926V.22218323C.21398926 .29226686 .23899842 .41436769 .33898927 .41436769 .33898927 .41436769 .31999208 .39736939 .31999208 .36834718 .31999208 .32730104 .35198976 .3072815 .3809967 .3072815 .4099884 .3072815 .44198609 .3283081 .44198609 .36834718V.36819459Z"/>
<path id="font_6_23" d="M.28599549 0V.04699707H.22399903V.4501953L.049987794 .4423828V.39537049C.10899353 .39537049 .115997318 .39537049 .115997318 .3563385V.04699707H.04699707V0L.16899109 .0029907227 .28599549 0M.23799134 .60728457C.23799134 .6502838 .20298767 .6852875 .1599884 .6852875 .116989139 .6852875 .08198547 .6502838 .08198547 .60728457 .08198547 .5642853 .116989139 .5292969 .1599884 .5292969 .20298767 .5292969 .23799134 .5642853 .23799134 .60728457Z"/>
<path id="font_6_17" d="M.4149933 .14012146C.4149933 .18312073 .394989 .21812439 .3600006 .24612427 .32099916 .27511598 .2889862 .28112794 .21099854 .29412843 .17399597 .30111695 .10899353 .31211854 .10899353 .3591156 .10899353 .42111207 .20199585 .42111207 .22099304 .42111207 .29599 .42111207 .33399964 .39212037 .33898927 .33711244 .33999635 .32211305 .34098817 .3171234 .3619995 .3171234 .38598634 .3171234 .38598634 .32211305 .38598634 .3451233V.42510987C.38598634 .4441223 .38598634 .453125 .36799623 .453125 .3639984 .453125 .3619995 .453125 .32299806 .43411256 .29699708 .44711305 .2619934 .453125 .22200012 .453125 .19198609 .453125 .037994386 .453125 .037994386 .32211305 .037994386 .28211976 .057998659 .25512696 .07798767 .23812866 .117996219 .203125 .1559906 .1971283 .23298645 .18312073 .2689972 .17712403 .34399415 .16412354 .34399415 .10513306 .34399415 .030136109 .2519989 .030136109 .22999573 .030136109 .12399292 .030136109 .09799194 .103134158 .085998538 .14613343 .08099365 .16012573 .07598877 .16012573 .06199646 .16012573 .037994386 .16012573 .037994386 .15412903 .037994386 .13113404V.022140503C.037994386 .0031280518 .037994386-.005859375 .055999757-.005859375 .06298828-.005859375 .06498718-.005859375 .085998538 .009140015L.11199951 .026138306C.1579895-.005859375 .20999146-.005859375 .22999573-.005859375 .26098634-.005859375 .4149933-.005859375 .4149933 .14013672V.14012146Z"/>
<path id="font_6_10" d="M.61499026 0V.04699707H.54599V.30613709C.54599 .41119386 .49198915 .4501953 .3919983 .4501953 .29599 .4501953 .24299622 .39318849 .21699524 .3421631V.4501953L.04499817 .4423828V.39537049C.10699463 .39537049 .11399841 .39537049 .11399841 .3563385V.04699707H.04499817V0L.17098999 .0029907227 .29699708 0V.04699707H.22799683V.2562256C.22799683 .3653412 .31399537 .41436769 .3769989 .41436769 .41099549 .41436769 .43199159 .39337159 .43199159 .31729127V.04699707H.36299134V0L.4889984 .0029907227 .61499026 0Z"/>
<path id="font_6_6" d="M.43699647 .6132202C.43699647 .65519717 .40098573 .7001953 .32299806 .7001953 .22499085 .7001953 .116989139 .65818789 .116989139 .54525759V.44433595H.041992189V.3973236H.116989139V.04699707H.04798889V0L.17399597 .0029907227C.21199036 .0029907227 .27598573 .0029907227 .31199647 0V.04699707H.22499085V.3973236H.33999635V.44433595H.21899414V.54525759C.21899414 .65519717 .29499818 .6641846 .31999208 .6641846 .32499696 .6641846 .32998658 .6641846 .33699037 .66218569 .32199098 .65119937 .31399537 .63220217 .31399537 .6132202 .31399537 .57025149 .34899903 .5512543 .375 .5512543 .40499879 .5512543 .43699647 .57225039 .43699647 .6132202Z"/>
<path id="font_6_4" d="M.49398805 .11706543C.49398805 .13504029 .47499085 .13504029 .46998597 .13504029 .45298768 .13504029 .45098878 .13005066 .44499208 .11405945 .42399598 .066101077 .36698915 .03413391 .3019867 .03413391 .16099549 .03413391 .1599884 .16700745 .1599884 .2179718H.46199037C.48399354 .2179718 .49398805 .2179718 .49398805 .2449646 .49398805 .27598573 .48799134 .34906007 .43798829 .3991089 .40098573 .43511964 .34799195 .453125 .2789917 .453125 .11898804 .453125 .03199768 .35005189 .03199768 .22497559 .03199768 .09107971 .13198853-.005859375 .29299928-.005859375 .45098878-.005859375 .49398805 .10006714 .49398805 .11706543M.39898683 .25097657H.1599884C.1619873 .29000855 .16299439 .3320465 .18399048 .36506654 .20999146 .4051056 .25 .41711427 .2789917 .41711427 .3959961 .41711427 .397995 .28599549 .39898683 .25097657Z"/>
<path id="font_6_22" d="M.58499148 0V.04699707H.5139923L.34599305 .2461853 .46299745 .37631227C.47599793 .39031983 .48199464 .3973236 .5649872 .3973236V.44433595L.47299195 .44132997 .36999513 .44433595V.3973236C.38398744 .3973236 .3959961 .3953247 .4079895 .38832093 .4039917 .38230897 .4039917 .38031007 .3999939 .37631227L.31599427 .2822113 .21798706 .3973236H.2579956V.44433595L.13699341 .44132997 .026992798 .44433595V.3973236H.09799194L.2539978 .21315003 .12298584 .06600952C.10598755 .04699707 .069992069 .04699707 .021987915 .04699707V0L.11399841 .0029907227 .21699524 0V.04699707C.19898987 .04699707 .17999268 .052001954 .17999268 .057998659 .17999268 .057998659 .17999268 .05999756 .18699646 .06800842L.28399659 .17712403 .3939972 .04699707H.35499574V0L.47499085 .0029907227 .58499148 0Z"/>
<path id="font_6_3" d="M.47799684 .117126468C.47799684 .13113404 .46398927 .13113404 .45399476 .13113404 .43598939 .13113404 .43499757 .12913513 .42999269 .11613464 .4039917 .053131105 .35598756 .03413391 .30499269 .03413391 .1659851 .03413391 .1659851 .18112183 .1659851 .22712708 .1659851 .28312684 .1659851 .41311646 .29499818 .41311646 .32998658 .41311646 .34700013 .41011048 .3600006 .40711976 .34199525 .39111329 .33999635 .3701172 .33999635 .3611145 .33999635 .3171234 .375 .29811097 .4019928 .29811097 .43299867 .29811097 .46499635 .3191223 .46499635 .3611145 .46499635 .44711305 .34899903 .453125 .29100038 .453125 .11199951 .45314027 .037994386 .33813478 .037994386 .22213745 .037994386 .08912659 .13198853-.005859375 .28599549-.005859375 .44799806-.005859375 .47799684 .11013794 .47799684 .117126468Z"/>
<path id="font_6_21" d="M.61499026 .0001373291V.0471344C.5529938 .0471344 .54599 .0471344 .54599 .086135867V.4501953L.36299134 .44218446V.39518739C.4249878 .39518739 .43199159 .39518739 .43199159 .3561859V.16514588C.43199159 .08314514 .3809967 .030136109 .30799867 .030136109 .23098755 .030136109 .22799683 .055130006 .22799683 .10914612V.4501953L.04499817 .44218446V.39518739C.10699463 .39518739 .11399841 .39518739 .11399841 .3561859V.12313843C.11399841 .01612854 .19499207-.005859375 .2939911-.005859375 .31999208-.005859375 .3919983-.005859375 .43798829 .072143558V-.005859375L.61499026 .0001373291Z"/>
<path id="font_6_20" d="M.38198854 .124176029V.17721558H.33499146V.12619019C.33499146 .058151246 .30299378 .03413391 .2749939 .03413391 .21699524 .03413391 .21699524 .09817505 .21699524 .1211853V.3973236H.36299134V.44433595H.21699524V.6357422H.16999817C.16899109 .53552249 .11999512 .43632508 .020996094 .43333436V.3973236H.102996829V.123184207C.102996829 .01612854 .18998719-.005859375 .26098634-.005859375 .33699037-.005859375 .38198854 .05114746 .38198854 .124176029Z"/>
<path id="font_6_16" d="M.57398989 .20323181C.57398989 .31422425 .49299623 .39523316 .4019928 .41423036L.25698854 .4452362C.21699524 .4542389 .16099549 .48823548 .16099549 .5492401 .16099549 .59225466 .18899536 .6542511 .2889862 .6542511 .36898805 .6542511 .46998597 .6202545 .49299623 .48423768 .49699403 .4602356 .49699403 .4582367 .5179901 .4582367 .5419922 .4582367 .5419922 .46324159 .5419922 .48623658V.6692505C.5419922 .68826296 .5419922 .6972656 .5239868 .6972656 .5159912 .6972656 .5149994 .69625857 .5039978 .68626406L.45899964 .6422577C.40098573 .68826296 .33599855 .6972656 .28799439 .6972656 .13598633 .6972656 .06399536 .6012573 .06399536 .49624635 .06399536 .4312439 .09700012 .38523866 .117996219 .36323548 .16699219 .31422425 .20098877 .30723573 .30999757 .28323365 .397995 .2642212 .4149933 .26123048 .43699647 .24023438 .45199586 .22523499 .47698976 .19923401 .47698976 .15324402 .47698976 .10523987 .45098878 .036254884 .34700013 .036254884 .2709961 .036254884 .11898804 .056243898 .11099243 .20523072 .10998535 .22322083 .10998535 .22822571 .08799744 .22822571 .06399536 .22822571 .06399536 .222229 .06399536 .19923401V.01725769C.06399536-.0017547608 .06399536-.0107421879 .08198547-.0107421879 .09098816-.0107421879 .09298706-.008743286 .100997928-.0017547608L.14698792 .04425049C.21299744-.0047454836 .30599977-.0107421879 .34700013-.0107421879 .5119934-.0107421879 .57398989 .102249149 .57398989 .20323181Z"/>
<path id="font_6_19" d="M.7569885 .43385316 .73599246 .6748047H.06298828L.041992189 .43385316H.08898926C.09799194 .5468292 .10798645 .62779238 .2519989 .62779238H.32899476V.04699707H.17599488V0C.22999573 .0029907227 .34098817 .0029907227 .3999939 .0029907227 .45899964 .0029907227 .56999209 .0029907227 .6239929 0V.04699707H.47099305V.62779238H.5469971C.6899872 .62779238 .69999697 .54782107 .70999148 .43385316H.7569885Z"/>
<path id="font_6_5" d="M.6749878 .4391327 .6439972 .6798096H.038986207V.6328125H.14698792V.04699707H.038986207V0C.07699585 .0029907227 .17799378 .0029907227 .22200012 .0029907227 .2709961 .0029907227 .37998963 .0029907227 .42399598 0V.04699707H.2889862V.31724549H.33898927C.43499757 .31724549 .44400025 .2742157 .44400025 .20013428H.4909973V.48106385H.44400025C.44400025 .4071808 .43598939 .3642578 .33898927 .3642578H.2889862V.6328125H.42900086C.58999636 .6328125 .61299136 .5559387 .6279907 .4391327H.6749878Z"/>
<path id="font_6_13" d="M.38198854-.23503113C.38198854-.23002625 .3789978-.22503662 .3789978-.22503662 .34999085-.19802857 .2849884-.13702393 .24299622-.009033203 .21699524 .06997681 .20498657 .16197205 .20498657 .24998474 .20498657 .4469757 .2559967 .60398867 .3659973 .7149811 .3809967 .72998049 .38198854 .73098757 .38198854 .73599246 .38198854 .74697878 .37199403 .75 .3639984 .75 .34700013 .75 .30499269 .7129822 .2869873 .6959839 .1309967 .5409851 .10798645 .35697938 .10798645 .25097657 .10798645 .12597656 .14099121 .015975953 .18798828-.06703186 .2539978-.18203736 .34498597-.24902344 .3639984-.24902344 .37199403-.24902344 .38198854-.24603272 .38198854-.23503113Z"/>
<path id="font_6_7" d="M.6009979 0V.04699707H.5319977V.694397C.522995 .69340518 .46798707 .6893921 .46398927 .6893921 .45700074 .6893921 .45599366 .6893921 .44999696 .69140627 .41799928 .7001953 .3919983 .7001953 .37298585 .7001953 .24299622 .7001953 .10598755 .65919497 .10598755 .54426577V.44433595H.0309906V.3973236H.10598755V.04699707H.036987306V0L.1599884 .0029907227 .2829895 0V.04699707H.21398926V.3973236H.42399598V.04699707H.35499574V0L.47799684 .0029907227 .6009979 0M.42399598 .44433595H.20799256V.54226687C.20799256 .64619448 .30499269 .6641846 .36799623 .6641846 .3899994 .6641846 .4169922 .65919497 .4169922 .65919497 .4169922 .6593933 .4169922 .6573944 .4149933 .6553955 .40499879 .64338687 .39898683 .62939456 .39898683 .61338809 .39898683 .6013794 .40299989 .58036807 .4189911 .56736758 .42399598 .56336978 .42399598 .56137087 .42399598 .5453644V.44433595Z"/>
<path id="font_6_18" d="M.526001 .20495606C.526001 .34495545 .4249878 .41796876 .3039856 .41796876 .28199769 .41781617 .22599793 .41781617 .18399048 .34181214V.36080934C.18399048 .47483827 .20498657 .51797488 .21199036 .53302 .23599243 .5801544 .2899933 .616272 .35099793 .616272 .36898805 .616272 .40299989 .6132202 .42599488 .58984377 .3899994 .58483889 .37199403 .5578308 .37199403 .52783206 .37199403 .49383546 .394989 .46583558 .43399049 .46583558 .47299195 .46583558 .49699403 .49183656 .49699403 .52983096 .49699403 .59187319 .45498658 .65527346 .34899903 .65527346 .21299744 .65527346 .04798889 .5688324 .04798889 .3170166 .04798889 .23808289 .056991579 .15814209 .09799194 .08920288 .14498902 .013244629 .22099304-.0107421879 .29100038-.0107421879 .42999269-.0107421879 .526001 .07121277 .526001 .20510865V.20495606M.3899994 .20710755C.3899994 .10618591 .3899994 .03225708 .2889862 .03225708 .23699951 .03225708 .20999146 .07121277 .20199585 .08720398 .18598938 .11917114 .18598938 .19212342 .18598938 .21009827 .18598938 .33499146 .23999024 .381958 .29499818 .381958 .3899994 .381958 .3899994 .3070221 .3899994 .20710755Z"/>
<path id="font_6_8" d="M.5419922 0V.04699707H.44499208V.15611267H.5419922V.203125H.44499208V.62423709C.44499208 .6512451 .44299317 .65625 .4149933 .65625 .3939972 .65625 .3929901 .6552429 .3809967 .6402283L.03199768 .203125V.15611267H.31999208V.04699707H.20799256V0C.24598694 .0029907227 .33699037 .0029907227 .37998963 .0029907227 .41999818 .0029907227 .5069885 .0029907227 .5419922 0M.33099366 .203125H.083999637L.33099366 .51319888V.203125Z"/>
<path id="font_6_14" d="M.33799745 .24998474C.33799745 .37498475 .30499269 .48498536 .2579956 .5679779 .19198609 .6829834 .100997928 .75 .08198547 .75 .07398987 .75 .06399536 .74697878 .06399536 .73599246 .06399536 .73098757 .06399536 .72898867 .08099365 .7129822 .20698548 .5849762 .24099732 .40797425 .24099732 .25097657 .24099732 .053970338 .18998719-.103027347 .07998657-.21403504 .06498718-.22903443 .06399536-.23002625 .06399536-.23503113 .06399536-.24603272 .07398987-.24902344 .08198547-.24902344 .09899902-.24902344 .14099121-.21203614 .15899658-.19502259 .31498719-.040023805 .33799745 .14398194 .33799745 .24998474Z"/>
<path id="font_7_13" d="M.5299988 .18458557C.5299988 .2716217 .47299195 .36065675 .37098695 .38467408L.23298645 .416687C.16899109 .4316864 .12199402 .4827118 .12199402 .5437927 .12199402 .61094668 .17999268 .6740875 .2669983 .6740875 .43998719 .6740875 .46299745 .51171877 .46798707 .4737091 .46998597 .46270753 .47099305 .45570375 .48399354 .45570375 .5 .45570375 .5 .46270753 .5 .4817047V.6781006C.5 .6940918 .5 .70410159 .4869995 .70410159 .47898866 .70410159 .47698976 .7010956 .46998597 .690094L.43499757 .6340027C.3849945 .6890869 .32099916 .70410159 .2659912 .70410159 .14698792 .70410159 .05899048 .61395266 .05899048 .51171877 .05899048 .43569947 .101989749 .39367677 .12098694 .3746643 .15699768 .33865357 .18998719 .3306427 .2979889 .30563355 .38398744 .28562928 .39898683 .2826233 .43199159 .24760437 .44198609 .23660279 .46699525 .20259094 .46699525 .15356446 .46699525 .08453369 .4139862 .011505127 .31999208 .011505127 .20999146 .011505127 .09599304 .06452942 .08999634 .20359802 .08898926 .21960449 .08898926 .22660828 .07499695 .22660828 .05899048 .22660828 .05899048 .21859741 .05899048 .19958496V.004501343C.05899048-.011489868 .05899048-.021484375 .07199097-.021484375 .07998657-.021484375 .08099365-.019485474 .08799744-.009490967 .09199524-.0034942628 .09599304 .005508423 .12399292 .047531129 .18699646-.0084991459 .26098634-.021484375 .32099916-.021484375 .44599916-.021484375 .5299988 .07752991 .5299988 .18458557Z"/>
<path id="font_7_10" d="M.5 .21325684C.5 .3382721 .39698792 .44628907 .2649994 .44628907 .1329956 .44628907 .02999878 .3382721 .02999878 .21325684 .02999878 .08824158 .13699341-.009765625 .2649994-.009765625 .3939972-.009765625 .5 .08824158 .5 .21325684M.41099549 .22225952C.41099549 .17625427 .40899659 .12124634 .3809967 .07923889 .35398866 .039230348 .30899049 .021224976 .2649994 .021224976 .21099854 .021224976 .16899109 .047225954 .14698792 .082229617 .12199402 .12324524 .11898804 .17224121 .11898804 .22225952 .11898804 .2602539 .11898804 .32026673 .1499939 .363266 .17599488 .3982849 .21798706 .41827394 .2649994 .41827394 .31698609 .41827394 .3600006 .39328004 .3829956 .35827638 .4099884 .31626893 .41099549 .2622528 .41099549 .22225952Z"/>
<path id="font_7_18" d="M.56199648 .00022888184V.033233644C.49398805 .033233644 .48599244 .040237428 .48599244 .08924866V.44140626L.33399964 .43040467V.3973999C.4019928 .3973999 .4099884 .39039613 .4099884 .34136964V.16726685C.4099884 .08125305 .35798646 .018234253 .2829895 .018234253 .19699097 .018234253 .19299317 .06123352 .19299317 .11126709V.44140626L.040985109 .43040467V.3973999C.116989139 .3973999 .116989139 .39439393 .116989139 .30534364V.15527344C.116989139 .08325195 .116989139-.009765625 .2769928-.009765625 .37098695-.009765625 .40699769 .0622406 .4119873 .071243289H.41299439V-.009765625L.56199648 .00022888184Z"/>
<path id="font_7_9" d="M.56199648 0V.032989503C.49798585 .032989503 .48599244 .032989503 .48599244 .07803345V.3032837C.48599244 .38737489 .44799806 .44140626 .34298707 .44140626 .24398804 .44140626 .19898987 .36935426 .18699646 .34532167H.18598938V.44140626L.040985109 .43045045V.39746095C.10899353 .39746095 .116989139 .3904419 .116989139 .3413849V.078048709C.116989139 .032989503 .10499573 .032989503 .040985109 .032989503V0C.083999637 .0029907227 .12799073 .0029907227 .15499878 .0029907227 .18399048 .0029907227 .22599793 .0029907227 .2689972 0V.032989503C.20498657 .032989503 .19299317 .032989503 .19299317 .078048709V.25927735C.19299317 .36434938 .272995 .4133911 .33399964 .4133911 .394989 .4133911 .4099884 .37036134 .4099884 .3072815V.07803345C.4099884 .032989503 .397995 .032989503 .33399964 .032989503V0C.3769989 .0029907227 .42099 .0029907227 .44799806 .0029907227 .47698976 .0029907227 .5189972 .0029907227 .56199648 0Z"/>
<path id="font_7_3" d="M.55400088 0V.032989503C.48599244 .032989503 .47799684 .039993287 .47799684 .089019779V.69433596L.32899476 .6826172V.6496124C.39698792 .6496124 .40499879 .64263918 .40499879 .5938263V.38339234C.36999513 .42140199 .32299806 .44140626 .2709961 .44140626 .1459961 .44140626 .034988405 .3443756 .034988405 .21531677 .034988405 .09225464 .1349945-.009765625 .26098634-.009765625 .31999208-.009765625 .36898805 .018234253 .4019928 .053237916V-.009765625L.55400088 0M.4019928 .12399292C.4019928 .10598755 .4019928 .101989749 .3869934 .08198547 .35899354 .042236329 .31298829 .018234253 .2659912 .018234253 .21998596 .018234253 .17999268 .042236329 .1559906 .07925415 .1289978 .118270877 .12399292 .16729737 .12399292 .21430969 .12399292 .27233888 .1329956 .3133545 .1559906 .3483734 .17999268 .38539125 .22499085 .4133911 .27598573 .4133911 .32398988 .4133911 .37199403 .38938905 .4019928 .33737184V.12399292Z"/>
<path id="font_7_8" d="M.9229889 0V.032989503H.901001C.82398989 .032989503 .82199099 .04399109 .82199099 .080963138V.6016388C.82199099 .63861086 .82398989 .6496124 .901001 .6496124H.9229889V.6826172H.7539978C.72698977 .6826172 .72499087 .6796112 .71798709 .66160586L.48599244 .094955448 .2539978 .65960696C.24598694 .6796112 .24499512 .6826172 .21699524 .6826172H.04899597V.6496124H.070999149C.147995 .6496124 .1499939 .63861086 .1499939 .6016388V.10694885C.1499939 .080963138 .1499939 .032989503 .04899597 .032989503V0C.09399414 .0029907227 .14099121 .0029907227 .16699219 .0029907227 .19299317 .0029907227 .23999024 .0029907227 .2849884 0V.032989503C.18399048 .032989503 .18399048 .080963138 .18399048 .10694885V.637619L.18499756 .63861086 .43699647 .023986817C.44299317 .010986328 .44699098 0 .46099855 0 .47399903 0 .47898866 .011993408 .48399354 .023986817L.7389984 .64660647 .73999026 .6456146V.080963138C.73999026 .04399109 .73799136 .032989503 .6609955 .032989503H.6389923V0L.7809906 .0029907227 .9229889 0Z"/>
<path id="font_7_7" d="M.61898806 .25985719H.58799746C.57598879 .1559143 .5609894 .032989503 .37799073 .032989503H.2849884C.23899842 .032989503 .23699951 .039993287 .23699951 .07395935V.6006317C.23699951 .6356201 .23699951 .6496124 .33099366 .6496124H.36299134V.6826172C.31799317 .6796112 .24499512 .6796112 .19799805 .6796112L.04399109 .6826172V.6496124H.06599426C.14299011 .6496124 .14498902 .63861086 .14498902 .6016388V.080963138C.14498902 .04399109 .14299011 .032989503 .06599426 .032989503H.04399109V0H.58999636L.61898806 .25985719Z"/>
<path id="font_7_20" d="M.2599945 .0001373291V.03314209C.19499207 .03314209 .19099427 .038146974 .19099427 .07714844V.44140626L.04499817 .43045045V.39746095C.10899353 .39746095 .117996219 .39144898 .117996219 .34239198V.07814026C.117996219 .03314209 .10598755 .03314209 .041992189 .03314209V0C.08099365 .0029907227 .13699341 .0029907227 .1519928 .0029907227 .16499329 .0029907227 .22499085 .0029907227 .2599945 0V.0001373291M.20298767 .6021881C.20298767 .6351929 .1769867 .6582031 .147995 .6582031 .11898804 .6582031 .09298706 .6351929 .09298706 .6021881 .09298706 .5731964 .115997318 .54719546 .147995 .54719546 .1789856 .54719546 .20298767 .5731964 .20298767 .6021881Z"/>
<path id="font_7_2" d="M.55400088 .21650696C.55400088 .3425293 .45098878 .44140626 .32899476 .44140626 .25 .44140626 .20098877 .39845277 .18399048 .38053895V.69433596L.034988405 .68333438V.6503296C.102996829 .6503296 .11099243 .6433258 .11099243 .5943451V.00048828127H.14199829L.17799378 .0625C.20199585 .02822876 .24899292-.009765625 .31698609-.009765625 .44400025-.009765625 .55400088 .08828735 .55400088 .21640015V.21650696M.46499635 .21740723C.46499635 .19438172 .46499635 .12332153 .42900086 .07627869 .3929901 .031234742 .34599305 .018234253 .31298829 .018234253 .2649994 .018234253 .22499085 .04324341 .19898987 .08229065 .18699646 .1013031 .18699646 .10231018 .18699646 .12132263V.3164978C.18699646 .33551026 .18699646 .3375244 .20199585 .3555298 .23098755 .39248658 .27799989 .4133911 .32299806 .4133911 .375 .4133911 .4139862 .38252259 .43399049 .35253907 .45098878 .3255005 .46499635 .29048158 .46499635 .21740723Z"/>
<path id="font_7_12" d="M.38398744 .3784027C.38398744 .4133911 .35198976 .44140626 .30799867 .44140626 .24299622 .44140626 .19898987 .39239503 .17799378 .33639527H.1769867V.44140626L.034988405 .43045045V.39746095C.102996829 .39746095 .11099243 .3904419 .11099243 .3413849V.078048709C.11099243 .032989503 .09899902 .032989503 .034988405 .032989503V0C.07398987 .0029907227 .1289978 .0029907227 .15299988 .0029907227 .21199036 .0029907227 .21398926 .0029907227 .2789917 0V.032989503H.25898744C.18598938 .032989503 .18399048 .044006349 .18399048 .08004761V.22824097C.18399048 .30332948 .21499634 .41145326 .31098939 .41345216 .30499269 .40899659 .29499818 .40098573 .29499818 .37799073 .29499818 .34700013 .31900025 .33299256 .33898927 .33299256 .36299134 .33299256 .38398744 .34899903 .38398744 .37799073V.3784027Z"/>
<path id="font_7_14" d="M.3829956 .12924195C.3829956 .1772461 .35398866 .24725342 .23498535 .2692566 .22698975 .2712555 .17098999 .28126527 .16699219 .28126527 .13598633 .28826905 .08898926 .30926515 .08898926 .34927369 .08898926 .37927247 .11099243 .4212799 .20599365 .4212799 .31799317 .4212799 .32299806 .33926393 .32499696 .31126405 .32598878 .30326844 .33299256 .30026246 .33999635 .30026246 .35598756 .30026246 .35598756 .30726625 .35598756 .32626344V.4202881C.35598756 .4362793 .35598756 .44628907 .34298707 .44628907 .33799745 .44628907 .33499146 .44628907 .31900025 .4302826 .31698609 .4292755 .30799867 .4202881 .30499269 .4202881 .30499269 .4202881 .3019867 .4202881 .29599 .4242859 .27999879 .43528749 .25099183 .44628907 .20599365 .44628907 .06599426 .44628907 .034988405 .37026979 .034988405 .32226563 .034988405 .27226258 .07199097 .24325562 .07499695 .24024964 .114990238 .21025086 .13798523 .20625305 .20498657 .19424439 .2519989 .18525696 .32899476 .17124939 .32899476 .10324097 .32899476 .0642395 .30299378 .018234253 .21099854 .018234253 .10998535 .018234253 .08099365 .09623718 .067993167 .14924622 .06399536 .1622467 .06298828 .16725159 .050994874 .16725159 .034988405 .16725159 .034988405 .15924073 .034988405 .14024353V.016220093C.034988405 .00022888184 .034988405-.009765625 .04798889-.009765625 .053985597-.009765625 .054992677-.008773804 .07299805 .010223389 .07798767 .0152282719 .08898926 .02822876 .09399414 .033233644 .13899231-.0077667238 .18598938-.009765625 .21199036-.009765625 .33898927-.009765625 .3829956 .06323242 .3829956 .12924195Z"/>
<path id="font_7_1" d="M.5139923 .09020996V.14530945H.48298646V.09020996C.48298646 .0491333 .46798707 .033111574 .44699098 .033111574 .4099884 .033111574 .4099884 .079193118 .4099884 .09020996V.29856874C.4099884 .39653016 .31498719 .44628907 .22399903 .44628907 .14099121 .44628907 .066986087 .4143219 .066986087 .34857179 .066986087 .318573 .08799744 .30056764 .11399841 .30056764 .14199829 .30056764 .16099549 .3205719 .16099549 .3475647 .16099549 .37156678 .1459961 .38856507 .12399292 .3935547 .16099549 .41827394 .21499634 .41827394 .22200012 .41827394 .27799989 .41827394 .33399964 .37957765 .33399964 .29756166V.26651C.27598573 .26350404 .20899964 .26049806 .13899231 .23144531 .050994874 .1933899 .033996583 .13528443 .033996583 .10223389 .033996583 .016220093 .1349945-.009765625 .20399475-.009765625 .2769928-.009765625 .32199098 .031219483 .34399415 .07122803 .34899903 .033111574 .375-.0048828127 .4189911-.0048828127 .42900086-.0048828127 .5139923-.00088500979 .5139923 .09010315V.09020996M.33399964 .14111328C.33399964 .04421997 .2519989 .018234253 .21199036 .018234253 .1599884 .018234253 .115997318 .053222658 .115997318 .10122681 .115997318 .16722107 .17799378 .23522949 .33399964 .24023438V.14111328Z"/>
</defs>
<path transform="matrix(1,0,0,-1,40.331,241.04203)" stroke-width=".3985" stroke-linecap="butt" stroke-dasharray="2.98883,2.98883" stroke-miterlimit="10" stroke-linejoin="miter" fill="none" stroke="#bfbfbf" d="M0 0V210.29419M36.28331 0V210.29419M72.56664 0V210.29419M108.84996 0V210.29419M145.13329 0V210.29419M181.4166 0V210.29419M217.69992 0V210.29419M253.98325 0V210.29419M290.26658 0V210.29419M326.5499 0V210.29419"/>
<path transform="matrix(1,0,0,-1,40.331,241.04203)" stroke-width=".3985" stroke-linecap="butt" stroke-dasharray="2.98883,2.98883" stroke-miterlimit="10" stroke-linejoin="miter" fill="none" stroke="#bfbfbf" d="M0 0H352.0227M0 46.12888H352.0227M0 92.25775H352.0227M0 138.38665H352.0227M0 184.51552H352.0227"/>
<path transform="matrix(1,0,0,-1,40.331,241.04203)" stroke-width=".19925" stroke-linecap="butt" stroke-miterlimit="10" stroke-linejoin="miter" fill="none" stroke="#7f807f" d="M0 0V4.25195M36.28331 0V4.25195M72.56664 0V4.25195M108.84996 0V4.25195M145.13329 0V4.25195M181.4166 0V4.25195M217.69992 0V4.25195M253.98325 0V4.25195M290.26658 0V4.25195M326.5499 0V4.25195M0 210.29419V206.0422M36.28331 210.29419V206.0422M72.56664 210.29419V206.0422M108.84996 210.29419V206.0422M145.13329 210.29419V206.0422M181.4166 210.29419V206.0422M217.69992 210.29419V206.0422M253.98325 210.29419V206.0422M290.26658 210.29419V206.0422M326.5499 210.29419V206.0422"/>
<path transform="matrix(1,0,0,-1,40.331,241.04203)" stroke-width=".19925" stroke-linecap="butt" stroke-miterlimit="10" stroke-linejoin="miter" fill="none" stroke="#7f807f" d="M0 0H4.25204M0 46.12888H4.25204M0 92.25775H4.25204M0 138.38665H4.25204M0 184.51552H4.25204M352.0227 0H347.77067M352.0227 46.12888H347.77067M352.0227 92.25775H347.77067M352.0227 138.38665H347.77067M352.0227 184.51552H347.77067"/>
<path transform="matrix(1,0,0,-1,40.331,241.04203)" stroke-width=".3985" stroke-linecap="butt" stroke-miterlimit="10" stroke-linejoin="miter" fill="none" stroke="#000000" d="M0 0V210.29419H352.0227V0H0Z"/>
<use data-text="0" xlink:href="#font_0_19" transform="matrix(7.9701,0,0,-7.9701,38.214,249.69805)"/>
<use data-text="0" xlink:href="#font_0_19" transform="matrix(7.9701,0,0,-7.9701,71.203,249.69805)"/>
<use data-text="." xlink:href="#font_1_1" transform="matrix(7.9701,0,0,-7.9701,75.43513,249.69805)"/>
<use data-text="5" xlink:href="#font_0_5" transform="matrix(7.9701,0,0,-7.9701,77.78631,249.69805)"/>
<use data-text="1" xlink:href="#font_0_11" transform="matrix(7.9701,0,0,-7.9701,110.779,249.69805)"/>
<use data-text="1" xlink:href="#font_0_11" transform="matrix(7.9701,0,0,-7.9701,143.76902,249.69805)"/>
<use data-text="." xlink:href="#font_1_1" transform="matrix(7.9701,0,0,-7.9701,148.00113,249.69805)"/>
<use data-text="5" xlink:href="#font_0_5" transform="matrix(7.9701,0,0,-7.9701,150.35231,249.69805)"/>
<use data-text="2" xlink:href="#font_0_17" transform="matrix(7.9701,0,0,-7.9701,183.345,249.69805)"/>
<use data-text="2" xlink:href="#font_0_17" transform="matrix(7.9701,0,0,-7.9701,216.33499,249.69805)"/>
<use data-text="." xlink:href="#font_1_1" transform="matrix(7.9701,0,0,-7.9701,220.56711,249.69805)"/>
<use data-text="5" xlink:href="#font_0_5" transform="matrix(7.9701,0,0,-7.9701,222.91829,249.69805)"/>
<use data-text="3" xlink:href="#font_0_16" transform="matrix(7.9701,0,0,-7.9701,255.91101,249.69805)"/>
<use data-text="3" xlink:href="#font_0_16" transform="matrix(7.9701,0,0,-7.9701,288.9,249.69805)"/>
<use data-text="." xlink:href="#font_1_1" transform="matrix(7.9701,0,0,-7.9701,293.1321,249.69805)"/>
<use data-text="5" xlink:href="#font_0_5" transform="matrix(7.9701,0,0,-7.9701,295.48329,249.69805)"/>
<use data-text="4" xlink:href="#font_0_6" transform="matrix(7.9701,0,0,-7.9701,328.47599,249.69805)"/>
<use data-text="4" xlink:href="#font_0_6" transform="matrix(7.9701,0,0,-7.9701,361.466,249.69805)"/>
<use data-text="." xlink:href="#font_1_1" transform="matrix(7.9701,0,0,-7.9701,365.69813,249.69805)"/>
<use data-text="5" xlink:href="#font_0_5" transform="matrix(7.9701,0,0,-7.9701,368.0493,249.69805)"/>
<use data-text="&#x00b7;" xlink:href="#font_2_1" transform="matrix(7.9701,0,0,-7.9701,349.659,264.864)"/>
<use data-text="1" xlink:href="#font_0_11" transform="matrix(7.9701,0,0,-7.9701,352.01017,264.864)"/>
<use data-text="0" xlink:href="#font_0_19" transform="matrix(7.9701,0,0,-7.9701,356.24229,264.864)"/>
<use data-text="6" xlink:href="#font_3_1" transform="matrix(5.9776,0,0,-5.9776,360.48,262.052)"/>
<use data-text="0" xlink:href="#font_0_19" transform="matrix(7.9701,0,0,-7.9701,32.577,243.61)"/>
<use data-text="2" xlink:href="#font_0_17" transform="matrix(7.9701,0,0,-7.9701,24.109002,197.48201)"/>
<use data-text="0" xlink:href="#font_0_19" transform="matrix(7.9701,0,0,-7.9701,28.341124,197.48201)"/>
<use data-text="0" xlink:href="#font_0_19" transform="matrix(7.9701,0,0,-7.9701,32.57325,197.48201)"/>
<use data-text="4" xlink:href="#font_0_6" transform="matrix(7.9701,0,0,-7.9701,24.109002,151.354)"/>
<use data-text="0" xlink:href="#font_0_19" transform="matrix(7.9701,0,0,-7.9701,28.341124,151.354)"/>
<use data-text="0" xlink:href="#font_0_19" transform="matrix(7.9701,0,0,-7.9701,32.57325,151.354)"/>
<use data-text="6" xlink:href="#font_0_15" transform="matrix(7.9701,0,0,-7.9701,24.109002,105.22601)"/>
<use data-text="0" xlink:href="#font_0_19" transform="matrix(7.9701,0,0,-7.9701,28.341124,105.22601)"/>
<use data-text="0" xlink:href="#font_0_19" transform="matrix(7.9701,0,0,-7.9701,32.57325,105.22601)"/>
<use data-text="8" xlink:href="#font_0_4" transform="matrix(7.9701,0,0,-7.9701,24.109002,59.097)"/>
<use data-text="0" xlink:href="#font_0_19" transform="matrix(7.9701,0,0,-7.9701,28.341124,59.097)"/>
<use data-text="0" xlink:href="#font_0_19" transform="matrix(7.9701,0,0,-7.9701,32.57325,59.097)"/>
<g clip-path="url(#clip_4)">
<path transform="matrix(1,0,0,-1,40.331,241.04203)" stroke-width=".79701" stroke-linecap="butt" stroke-miterlimit="10" stroke-linejoin="miter" fill="none" stroke="#b35900" d="M3.20018 3.52884 6.40038 4.0847 9.60054 7.65738 12.80074 8.42313 16.00093 10.3121 25.60149 16.13588 32.00188 18.63144 48.0028 44.59277 64.00375 39.84842 80.0047 57.93555 96.00566 92.68674 112.0066 82.47844 128.00754 80.62636 144.00849 143.06871 160.00943 100.614 192.01134 120.45633 240.01416 159.25997 320.0189 191.17653"/>
<path transform="matrix(1,0,0,-1,40.331,241.04203)" stroke-width=".79701" stroke-linecap="butt" stroke-miterlimit="10" stroke-linejoin="miter" fill="none" stroke="#0000cc" d="M3.20018 .1913 6.40038 .32971 9.60054 .46422 12.80074 .61107 16.00093 .7788 25.60149 1.3833 32.00188 1.86108 48.0028 2.56639 64.00375 3.40094 80.0047 4.46971 96.00566 5.14597 112.0066 6.04851 128.00754 6.78854 144.00849 7.65172 160.00943 8.68787 192.01134 10.3101 240.01416 13.22583 320.0189 16.61464"/>
</g>
<path transform="matrix(1,0,0,-1,40.331,241.04203)" d="M4.6946 3.52884C4.6946 4.35419 4.02553 5.02325 3.20018 5.02325 2.37483 5.02325 1.70576 4.35419 1.70576 3.52884 1.70576 2.70349 2.37483 2.03442 3.20018 2.03442 4.02553 2.03442 4.6946 2.70349 4.6946 3.52884ZM3.20018 3.52884" fill="#b35900"/>
<path transform="matrix(1,0,0,-1,40.331,241.04203)" stroke-width=".79701" stroke-linecap="butt" stroke-miterlimit="10" stroke-linejoin="miter" fill="none" stroke="#b35900" d="M4.6946 3.52884C4.6946 4.35419 4.02553 5.02325 3.20018 5.02325 2.37483 5.02325 1.70576 4.35419 1.70576 3.52884 1.70576 2.70349 2.37483 2.03442 3.20018 2.03442 4.02553 2.03442 4.6946 2.70349 4.6946 3.52884ZM3.20018 3.52884"/>
<path transform="matrix(1,0,0,-1,40.331,241.04203)" d="M7.89479 4.0847C7.89479 4.91005 7.22572 5.57912 6.40038 5.57912 5.57503 5.57912 4.90596 4.91005 4.90596 4.0847 4.90596 3.25935 5.57503 2.59029 6.40038 2.59029 7.22572 2.59029 7.89479 3.25935 7.89479 4.0847ZM6.40038 4.0847" fill="#b35900"/>
<path transform="matrix(1,0,0,-1,40.331,241.04203)" stroke-width=".79701" stroke-linecap="butt" stroke-miterlimit="10" stroke-linejoin="miter" fill="none" stroke="#b35900" d="M7.89479 4.0847C7.89479 4.91005 7.22572 5.57912 6.40038 5.57912 5.57503 5.57912 4.90596 4.91005 4.90596 4.0847 4.90596 3.25935 5.57503 2.59029 6.40038 2.59029 7.22572 2.59029 7.89479 3.25935 7.89479 4.0847ZM6.40038 4.0847"/>
<path transform="matrix(1,0,0,-1,40.331,241.04203)" d="M11.09496 7.65738C11.09496 8.48273 10.42589 9.1518 9.60054 9.1518 8.77519 9.1518 8.10612 8.48273 8.10612 7.65738 8.10612 6.83203 8.77519 6.16296 9.60054 6.16296 10.42589 6.16296 11.09496 6.83203 11.09496 7.65738ZM9.60054 7.65738" fill="#b35900"/>
<path transform="matrix(1,0,0,-1,40.331,241.04203)" stroke-width=".79701" stroke-linecap="butt" stroke-miterlimit="10" stroke-linejoin="miter" fill="none" stroke="#b35900" d="M11.09496 7.65738C11.09496 8.48273 10.42589 9.1518 9.60054 9.1518 8.77519 9.1518 8.10612 8.48273 8.10612 7.65738 8.10612 6.83203 8.77519 6.16296 9.60054 6.16296 10.42589 6.16296 11.09496 6.83203 11.09496 7.65738ZM9.60054 7.65738"/>
<path transform="matrix(1,0,0,-1,40.331,241.04203)" d="M14.29515 8.42313C14.29515 9.24846 13.62608 9.91754 12.80074 9.91754 11.9754 9.91754 11.30632 9.24846 11.30632 8.42313 11.30632 7.59778 11.9754 6.92871 12.80074 6.92871 13.62608 6.92871 14.29515 7.59778 14.29515 8.42313ZM12.80074 8.42313" fill="#b35900"/>
<path transform="matrix(1,0,0,-1,40.331,241.04203)" stroke-width=".79701" stroke-linecap="butt" stroke-miterlimit="10" stroke-linejoin="miter" fill="none" stroke="#b35900" d="M14.29515 8.42313C14.29515 9.24846 13.62608 9.91754 12.80074 9.91754 11.9754 9.91754 11.30632 9.24846 11.30632 8.42313 11.30632 7.59778 11.9754 6.92871 12.80074 6.92871 13.62608 6.92871 14.29515 7.59778 14.29515 8.42313ZM12.80074 8.42313"/>
<path transform="matrix(1,0,0,-1,40.331,241.04203)" d="M17.49535 10.3121C17.49535 11.13745 16.82628 11.80652 16.00093 11.80652 15.17558 11.80652 14.50652 11.13745 14.50652 10.3121 14.50652 9.48676 15.17558 8.81769 16.00093 8.81769 16.82628 8.81769 17.49535 9.48676 17.49535 10.3121ZM16.00093 10.3121" fill="#b35900"/>
<path transform="matrix(1,0,0,-1,40.331,241.04203)" stroke-width=".79701" stroke-linecap="butt" stroke-miterlimit="10" stroke-linejoin="miter" fill="none" stroke="#b35900" d="M17.49535 10.3121C17.49535 11.13745 16.82628 11.80652 16.00093 11.80652 15.17558 11.80652 14.50652 11.13745 14.50652 10.3121 14.50652 9.48676 15.17558 8.81769 16.00093 8.81769 16.82628 8.81769 17.49535 9.48676 17.49535 10.3121ZM16.00093 10.3121"/>
<path transform="matrix(1,0,0,-1,40.331,241.04203)" d="M27.0959 16.13588C27.0959 16.96121 26.42683 17.6303 25.60149 17.6303 24.77615 17.6303 24.10707 16.96121 24.10707 16.13588 24.10707 15.31053 24.77615 14.64146 25.60149 14.64146 26.42683 14.64146 27.0959 15.31053 27.0959 16.13588ZM25.60149 16.13588" fill="#b35900"/>
<path transform="matrix(1,0,0,-1,40.331,241.04203)" stroke-width=".79701" stroke-linecap="butt" stroke-miterlimit="10" stroke-linejoin="miter" fill="none" stroke="#b35900" d="M27.0959 16.13588C27.0959 16.96121 26.42683 17.6303 25.60149 17.6303 24.77615 17.6303 24.10707 16.96121 24.10707 16.13588 24.10707 15.31053 24.77615 14.64146 25.60149 14.64146 26.42683 14.64146 27.0959 15.31053 27.0959 16.13588ZM25.60149 16.13588"/>
<path transform="matrix(1,0,0,-1,40.331,241.04203)" d="M33.49629 18.63144C33.49629 19.45679 32.82722 20.12585 32.00188 20.12585 31.17653 20.12585 30.50746 19.45679 30.50746 18.63144 30.50746 17.8061 31.17653 17.13702 32.00188 17.13702 32.82722 17.13702 33.49629 17.8061 33.49629 18.63144ZM32.00188 18.63144" fill="#b35900"/>
<path transform="matrix(1,0,0,-1,40.331,241.04203)" stroke-width=".79701" stroke-linecap="butt" stroke-miterlimit="10" stroke-linejoin="miter" fill="none" stroke="#b35900" d="M33.49629 18.63144C33.49629 19.45679 32.82722 20.12585 32.00188 20.12585 31.17653 20.12585 30.50746 19.45679 30.50746 18.63144 30.50746 17.8061 31.17653 17.13702 32.00188 17.13702 32.82722 17.13702 33.49629 17.8061 33.49629 18.63144ZM32.00188 18.63144"/>
<path transform="matrix(1,0,0,-1,40.331,241.04203)" d="M49.49722 44.59277C49.49722 45.41812 48.82816 46.08719 48.0028 46.08719 47.17746 46.08719 46.50839 45.41812 46.50839 44.59277 46.50839 43.76743 47.17746 43.09836 48.0028 43.09836 48.82816 43.09836 49.49722 43.76743 49.49722 44.59277ZM48.0028 44.59277" fill="#b35900"/>
<path transform="matrix(1,0,0,-1,40.331,241.04203)" stroke-width=".79701" stroke-linecap="butt" stroke-miterlimit="10" stroke-linejoin="miter" fill="none" stroke="#b35900" d="M49.49722 44.59277C49.49722 45.41812 48.82816 46.08719 48.0028 46.08719 47.17746 46.08719 46.50839 45.41812 46.50839 44.59277 46.50839 43.76743 47.17746 43.09836 48.0028 43.09836 48.82816 43.09836 49.49722 43.76743 49.49722 44.59277ZM48.0028 44.59277"/>
<path transform="matrix(1,0,0,-1,40.331,241.04203)" d="M65.49817 39.84842C65.49817 40.67377 64.8291 41.34283 64.00375 41.34283 63.1784 41.34283 62.50934 40.67377 62.50934 39.84842 62.50934 39.02307 63.1784 38.354 64.00375 38.354 64.8291 38.354 65.49817 39.02307 65.49817 39.84842ZM64.00375 39.84842" fill="#b35900"/>
<path transform="matrix(1,0,0,-1,40.331,241.04203)" stroke-width=".79701" stroke-linecap="butt" stroke-miterlimit="10" stroke-linejoin="miter" fill="none" stroke="#b35900" d="M65.49817 39.84842C65.49817 40.67377 64.8291 41.34283 64.00375 41.34283 63.1784 41.34283 62.50934 40.67377 62.50934 39.84842 62.50934 39.02307 63.1784 38.354 64.00375 38.354 64.8291 38.354 65.49817 39.02307 65.49817 39.84842ZM64.00375 39.84842"/>
<path transform="matrix(1,0,0,-1,40.331,241.04203)" d="M81.49911 57.93555C81.49911 58.7609 80.83005 59.42996 80.0047 59.42996 79.17937 59.42996 78.51028 58.7609 78.51028 57.93555 78.51028 57.11021 79.17937 56.44113 80.0047 56.44113 80.83005 56.44113 81.49911 57.11021 81.49911 57.93555ZM80.0047 57.93555" fill="#b35900"/>
<path transform="matrix(1,0,0,-1,40.331,241.04203)" stroke-width=".79701" stroke-linecap="butt" stroke-miterlimit="10" stroke-linejoin="miter" fill="none" stroke="#b35900" d="M81.49911 57.93555C81.49911 58.7609 80.83005 59.42996 80.0047 59.42996 79.17937 59.42996 78.51028 58.7609 78.51028 57.93555 78.51028 57.11021 79.17937 56.44113 80.0047 56.44113 80.83005 56.44113 81.49911 57.11021 81.49911 57.93555ZM80.0047 57.93555"/>
<path transform="matrix(1,0,0,-1,40.331,241.04203)" d="M97.50008 92.68674C97.50008 93.51208 96.831 94.18115 96.00566 94.18115 95.18031 94.18115 94.51125 93.51208 94.51125 92.68674 94.51125 91.8614 95.18031 91.19232 96.00566 91.19232 96.831 91.19232 97.50008 91.8614 97.50008 92.68674ZM96.00566 92.68674" fill="#b35900"/>
<path transform="matrix(1,0,0,-1,40.331,241.04203)" stroke-width=".79701" stroke-linecap="butt" stroke-miterlimit="10" stroke-linejoin="miter" fill="none" stroke="#b35900" d="M97.50008 92.68674C97.50008 93.51208 96.831 94.18115 96.00566 94.18115 95.18031 94.18115 94.51125 93.51208 94.51125 92.68674 94.51125 91.8614 95.18031 91.19232 96.00566 91.19232 96.831 91.19232 97.50008 91.8614 97.50008 92.68674ZM96.00566 92.68674"/>
<path transform="matrix(1,0,0,-1,40.331,241.04203)" d="M113.50102 82.47844C113.50102 83.30377 112.83195 83.97285 112.0066 83.97285 111.18126 83.97285 110.51219 83.30377 110.51219 82.47844 110.51219 81.65309 111.18126 80.98402 112.0066 80.98402 112.83195 80.98402 113.50102 81.65309 113.50102 82.47844ZM112.0066 82.47844" fill="#b35900"/>
<path transform="matrix(1,0,0,-1,40.331,241.04203)" stroke-width=".79701" stroke-linecap="butt" stroke-miterlimit="10" stroke-linejoin="miter" fill="none" stroke="#b35900" d="M113.50102 82.47844C113.50102 83.30377 112.83195 83.97285 112.0066 83.97285 111.18126 83.97285 110.51219 83.30377 110.51219 82.47844 110.51219 81.65309 111.18126 80.98402 112.0066 80.98402 112.83195 80.98402 113.50102 81.65309 113.50102 82.47844ZM112.0066 82.47844"/>
<path transform="matrix(1,0,0,-1,40.331,241.04203)" d="M129.50196 80.62636C129.50196 81.4517 128.83289 82.12077 128.00754 82.12077 127.18219 82.12077 126.51312 81.4517 126.51312 80.62636 126.51312 79.80101 127.18219 79.13194 128.00754 79.13194 128.83289 79.13194 129.50196 79.80101 129.50196 80.62636ZM128.00754 80.62636" fill="#b35900"/>
<path transform="matrix(1,0,0,-1,40.331,241.04203)" stroke-width=".79701" stroke-linecap="butt" stroke-miterlimit="10" stroke-linejoin="miter" fill="none" stroke="#b35900" d="M129.50196 80.62636C129.50196 81.4517 128.83289 82.12077 128.00754 82.12077 127.18219 82.12077 126.51312 81.4517 126.51312 80.62636 126.51312 79.80101 127.18219 79.13194 128.00754 79.13194 128.83289 79.13194 129.50196 79.80101 129.50196 80.62636ZM128.00754 80.62636"/>
<path transform="matrix(1,0,0,-1,40.331,241.04203)" d="M145.5029 143.06871C145.5029 143.89406 144.83383 144.56313 144.00849 144.56313 143.18314 144.56313 142.51407 143.89406 142.51407 143.06871 142.51407 142.24337 143.18314 141.5743 144.00849 141.5743 144.83383 141.5743 145.5029 142.24337 145.5029 143.06871ZM144.00849 143.06871" fill="#b35900"/>
<path transform="matrix(1,0,0,-1,40.331,241.04203)" stroke-width=".79701" stroke-linecap="butt" stroke-miterlimit="10" stroke-linejoin="miter" fill="none" stroke="#b35900" d="M145.5029 143.06871C145.5029 143.89406 144.83383 144.56313 144.00849 144.56313 143.18314 144.56313 142.51407 143.89406 142.51407 143.06871 142.51407 142.24337 143.18314 141.5743 144.00849 141.5743 144.83383 141.5743 145.5029 142.24337 145.5029 143.06871ZM144.00849 143.06871"/>
<path transform="matrix(1,0,0,-1,40.331,241.04203)" d="M161.50385 100.614C161.50385 101.43935 160.83478 102.10841 160.00943 102.10841 159.18408 102.10841 158.51502 101.43935 158.51502 100.614 158.51502 99.78865 159.18408 99.11958 160.00943 99.11958 160.83478 99.11958 161.50385 99.78865 161.50385 100.614ZM160.00943 100.614" fill="#b35900"/>
<path transform="matrix(1,0,0,-1,40.331,241.04203)" stroke-width=".79701" stroke-linecap="butt" stroke-miterlimit="10" stroke-linejoin="miter" fill="none" stroke="#b35900" d="M161.50385 100.614C161.50385 101.43935 160.83478 102.10841 160.00943 102.10841 159.18408 102.10841 158.51502 101.43935 158.51502 100.614 158.51502 99.78865 159.18408 99.11958 160.00943 99.11958 160.83478 99.11958 161.50385 99.78865 161.50385 100.614ZM160.00943 100.614"/>
<path transform="matrix(1,0,0,-1,40.331,241.04203)" d="M193.50576 120.45633C193.50576 121.28168 192.83669 121.95074 192.01134 121.95074 191.18599 121.95074 190.51692 121.28168 190.51692 120.45633 190.51692 119.63098 191.18599 118.96191 192.01134 118.96191 192.83669 118.96191 193.50576 119.63098 193.50576 120.45633ZM192.01134 120.45633" fill="#b35900"/>
<path transform="matrix(1,0,0,-1,40.331,241.04203)" stroke-width=".79701" stroke-linecap="butt" stroke-miterlimit="10" stroke-linejoin="miter" fill="none" stroke="#b35900" d="M193.50576 120.45633C193.50576 121.28168 192.83669 121.95074 192.01134 121.95074 191.18599 121.95074 190.51692 121.28168 190.51692 120.45633 190.51692 119.63098 191.18599 118.96191 192.01134 118.96191 192.83669 118.96191 193.50576 119.63098 193.50576 120.45633ZM192.01134 120.45633"/>
<path transform="matrix(1,0,0,-1,40.331,241.04203)" d="M241.50858 159.25997C241.50858 160.08531 240.83951 160.75438 240.01416 160.75438 239.18881 160.75438 238.51975 160.08531 238.51975 159.25997 238.51975 158.43462 239.18881 157.76555 240.01416 157.76555 240.83951 157.76555 241.50858 158.43462 241.50858 159.25997ZM240.01416 159.25997" fill="#b35900"/>
<path transform="matrix(1,0,0,-1,40.331,241.04203)" stroke-width=".79701" stroke-linecap="butt" stroke-miterlimit="10" stroke-linejoin="miter" fill="none" stroke="#b35900" d="M241.50858 159.25997C241.50858 160.08531 240.83951 160.75438 240.01416 160.75438 239.18881 160.75438 238.51975 160.08531 238.51975 159.25997 238.51975 158.43462 239.18881 157.76555 240.01416 157.76555 240.83951 157.76555 241.50858 158.43462 241.50858 159.25997ZM240.01416 159.25997"/>
<path transform="matrix(1,0,0,-1,40.331,241.04203)" d="M321.5133 191.17653C321.5133 192.00188 320.84425 192.67095 320.0189 192.67095 319.19355 192.67095 318.52449 192.00188 318.52449 191.17653 318.52449 190.35118 319.19355 189.68212 320.0189 189.68212 320.84425 189.68212 321.5133 190.35118 321.5133 191.17653ZM320.0189 191.17653" fill="#b35900"/>
<path transform="matrix(1,0,0,-1,40.331,241.04203)" stroke-width=".79701" stroke-linecap="butt" stroke-miterlimit="10" stroke-linejoin="miter" fill="none" stroke="#b35900" d="M321.5133 191.17653C321.5133 192.00188 320.84425 192.67095 320.0189 192.67095 319.19355 192.67095 318.52449 192.00188 318.52449 191.17653 318.52449 190.35118 319.19355 189.68212 320.0189 189.68212 320.84425 189.68212 321.5133 190.35118 321.5133 191.17653ZM320.0189 191.17653"/>
<path transform="matrix(1,0,0,-1,40.331,241.04203)" stroke-width=".79701" stroke-linecap="butt" stroke-miterlimit="10" stroke-linejoin="miter" fill="none" stroke="#b35900" d=""/>
<path transform="matrix(1,0,0,-1,40.331,241.04203)" d="M1.70576-1.3031H4.69459V1.6857301H1.70576Z" fill="#0000cc"/>
<path transform="matrix(1,0,0,-1,40.331,241.04203)" stroke-width=".79701" stroke-linecap="butt" stroke-miterlimit="10" stroke-linejoin="miter" fill="none" stroke="#0000cc" d="M1.70576-1.3031H4.69459V1.6857301H1.70576Z"/>
<path transform="matrix(1,0,0,-1,40.331,241.04203)" d="M4.90596-1.16469H7.89479V1.8241401H4.90596Z" fill="#0000cc"/>
<path transform="matrix(1,0,0,-1,40.331,241.04203)" stroke-width=".79701" stroke-linecap="butt" stroke-miterlimit="10" stroke-linejoin="miter" fill="none" stroke="#0000cc" d="M4.90596-1.16469H7.89479V1.8241401H4.90596Z"/>
<path transform="matrix(1,0,0,-1,40.331,241.04203)" d="M8.10612-1.03018H11.09495V1.9586501H8.10612Z" fill="#0000cc"/>
<path transform="matrix(1,0,0,-1,40.331,241.04203)" stroke-width=".79701" stroke-linecap="butt" stroke-miterlimit="10" stroke-linejoin="miter" fill="none" stroke="#0000cc" d="M8.10612-1.03018H11.09495V1.9586501H8.10612Z"/>
<path transform="matrix(1,0,0,-1,40.331,241.04203)" d="M11.30632-.88333H14.295151V2.1055003H11.30632Z" fill="#0000cc"/>
<path transform="matrix(1,0,0,-1,40.331,241.04203)" stroke-width=".79701" stroke-linecap="butt" stroke-miterlimit="10" stroke-linejoin="miter" fill="none" stroke="#0000cc" d="M11.30632-.88333H14.295151V2.1055003H11.30632Z"/>
<path transform="matrix(1,0,0,-1,40.331,241.04203)" d="M14.50652-.7156H17.49535V2.27323H14.50652Z" fill="#0000cc"/>
<path transform="matrix(1,0,0,-1,40.331,241.04203)" stroke-width=".79701" stroke-linecap="butt" stroke-miterlimit="10" stroke-linejoin="miter" fill="none" stroke="#0000cc" d="M14.50652-.7156H17.49535V2.27323H14.50652Z"/>
<path transform="matrix(1,0,0,-1,40.331,241.04203)" d="M24.10707-.1111H27.095902V2.8777302H24.10707Z" fill="#0000cc"/>
<path transform="matrix(1,0,0,-1,40.331,241.04203)" stroke-width=".79701" stroke-linecap="butt" stroke-miterlimit="10" stroke-linejoin="miter" fill="none" stroke="#0000cc" d="M24.10707-.1111H27.095902V2.8777302H24.10707Z"/>
<path transform="matrix(1,0,0,-1,40.331,241.04203)" d="M30.50746 .36667H33.49629V3.3555003H30.50746Z" fill="#0000cc"/>
<path transform="matrix(1,0,0,-1,40.331,241.04203)" stroke-width=".79701" stroke-linecap="butt" stroke-miterlimit="10" stroke-linejoin="miter" fill="none" stroke="#0000cc" d="M30.50746 .36667H33.49629V3.3555003H30.50746Z"/>
<path transform="matrix(1,0,0,-1,40.331,241.04203)" d="M46.50839 1.07198H49.49722V4.06081H46.50839Z" fill="#0000cc"/>
<path transform="matrix(1,0,0,-1,40.331,241.04203)" stroke-width=".79701" stroke-linecap="butt" stroke-miterlimit="10" stroke-linejoin="miter" fill="none" stroke="#0000cc" d="M46.50839 1.07198H49.49722V4.06081H46.50839Z"/>
<path transform="matrix(1,0,0,-1,40.331,241.04203)" d="M62.50934 1.90652H65.49817V4.89535H62.50934Z" fill="#0000cc"/>
<path transform="matrix(1,0,0,-1,40.331,241.04203)" stroke-width=".79701" stroke-linecap="butt" stroke-miterlimit="10" stroke-linejoin="miter" fill="none" stroke="#0000cc" d="M62.50934 1.90652H65.49817V4.89535H62.50934Z"/>
<path transform="matrix(1,0,0,-1,40.331,241.04203)" d="M78.51028 2.9753H81.49911V5.9641306H78.51028Z" fill="#0000cc"/>
<path transform="matrix(1,0,0,-1,40.331,241.04203)" stroke-width=".79701" stroke-linecap="butt" stroke-miterlimit="10" stroke-linejoin="miter" fill="none" stroke="#0000cc" d="M78.51028 2.9753H81.49911V5.9641306H78.51028Z"/>
<path transform="matrix(1,0,0,-1,40.331,241.04203)" d="M94.51125 3.65155H97.500087V6.64038H94.51125Z" fill="#0000cc"/>
<path transform="matrix(1,0,0,-1,40.331,241.04203)" stroke-width=".79701" stroke-linecap="butt" stroke-miterlimit="10" stroke-linejoin="miter" fill="none" stroke="#0000cc" d="M94.51125 3.65155H97.500087V6.64038H94.51125Z"/>
<path transform="matrix(1,0,0,-1,40.331,241.04203)" d="M110.51219 4.5541H113.50102V7.54293H110.51219Z" fill="#0000cc"/>
<path transform="matrix(1,0,0,-1,40.331,241.04203)" stroke-width=".79701" stroke-linecap="butt" stroke-miterlimit="10" stroke-linejoin="miter" fill="none" stroke="#0000cc" d="M110.51219 4.5541H113.50102V7.54293H110.51219Z"/>
<path transform="matrix(1,0,0,-1,40.331,241.04203)" d="M126.51312 5.29413H129.50196V8.28296H126.51312Z" fill="#0000cc"/>
<path transform="matrix(1,0,0,-1,40.331,241.04203)" stroke-width=".79701" stroke-linecap="butt" stroke-miterlimit="10" stroke-linejoin="miter" fill="none" stroke="#0000cc" d="M126.51312 5.29413H129.50196V8.28296H126.51312Z"/>
<path transform="matrix(1,0,0,-1,40.331,241.04203)" d="M142.51407 6.1573H145.5029V9.14613H142.51407Z" fill="#0000cc"/>
<path transform="matrix(1,0,0,-1,40.331,241.04203)" stroke-width=".79701" stroke-linecap="butt" stroke-miterlimit="10" stroke-linejoin="miter" fill="none" stroke="#0000cc" d="M142.51407 6.1573H145.5029V9.14613H142.51407Z"/>
<path transform="matrix(1,0,0,-1,40.331,241.04203)" d="M158.51502 7.19345H161.50385V10.18228H158.51502Z" fill="#0000cc"/>
<path transform="matrix(1,0,0,-1,40.331,241.04203)" stroke-width=".79701" stroke-linecap="butt" stroke-miterlimit="10" stroke-linejoin="miter" fill="none" stroke="#0000cc" d="M158.51502 7.19345H161.50385V10.18228H158.51502Z"/>
<path transform="matrix(1,0,0,-1,40.331,241.04203)" d="M190.51692 8.81569H193.50576V11.80452H190.51692Z" fill="#0000cc"/>
<path transform="matrix(1,0,0,-1,40.331,241.04203)" stroke-width=".79701" stroke-linecap="butt" stroke-miterlimit="10" stroke-linejoin="miter" fill="none" stroke="#0000cc" d="M190.51692 8.81569H193.50576V11.80452H190.51692Z"/>
<path transform="matrix(1,0,0,-1,40.331,241.04203)" d="M238.51975 11.73141H241.50858V14.72024H238.51975Z" fill="#0000cc"/>
<path transform="matrix(1,0,0,-1,40.331,241.04203)" stroke-width=".79701" stroke-linecap="butt" stroke-miterlimit="10" stroke-linejoin="miter" fill="none" stroke="#0000cc" d="M238.51975 11.73141H241.50858V14.72024H238.51975Z"/>
<path transform="matrix(1,0,0,-1,40.331,241.04203)" d="M318.52449 15.12022H321.5133V18.10905H318.52449Z" fill="#0000cc"/>
<path transform="matrix(1,0,0,-1,40.331,241.04203)" stroke-width=".79701" stroke-linecap="butt" stroke-miterlimit="10" stroke-linejoin="miter" fill="none" stroke="#0000cc" d="M318.52449 15.12022H321.5133V18.10905H318.52449Z"/>
<path transform="matrix(1,0,0,-1,40.331,241.04203)" stroke-width=".79701" stroke-linecap="butt" stroke-miterlimit="10" stroke-linejoin="miter" fill="none" stroke="#0000cc" d=""/>
<use data-text="D" xlink:href="#font_5_3" transform="matrix(8.9664,0,0,-8.9664,171.52701,263.26304)"/>
<use data-text="a" xlink:href="#font_5_1" transform="matrix(8.9664,0,0,-8.9664,178.56563,263.26304)"/>
<use data-text="t" xlink:href="#font_5_14" transform="matrix(8.9664,0,0,-8.9664,183.17436,263.26304)"/>
<use data-text="a" xlink:href="#font_5_1" transform="matrix(8.9664,0,0,-8.9664,186.76093,263.26304)"/>
<use data-text="s" xlink:href="#font_5_13" transform="matrix(8.9664,0,0,-8.9664,194.44513,263.26304)"/>
<use data-text="i" xlink:href="#font_5_18" transform="matrix(8.9664,0,0,-8.9664,198.07653,263.26304)"/>
<use data-text="z" xlink:href="#font_5_17" transform="matrix(8.9664,0,0,-8.9664,200.64092,263.26304)"/>
<use data-text="e" xlink:href="#font_5_5" transform="matrix(8.9664,0,0,-8.9664,204.73856,263.26304)"/>
<use data-text="(" xlink:href="#font_5_11" transform="matrix(8.9664,0,0,-8.9664,211.90271,263.26304)"/>
<use data-text="i" xlink:href="#font_5_18" transform="matrix(8.9664,0,0,-8.9664,215.48928,263.26304)"/>
<use data-text="n" xlink:href="#font_5_8" transform="matrix(8.9664,0,0,-8.9664,218.05367,263.26304)"/>
<use data-text="s" xlink:href="#font_5_13" transform="matrix(8.9664,0,0,-8.9664,226.24895,263.26304)"/>
<use data-text="a" xlink:href="#font_5_1" transform="matrix(8.9664,0,0,-8.9664,229.88034,263.26304)"/>
<use data-text="m" xlink:href="#font_5_7" transform="matrix(8.9664,0,0,-8.9664,234.48908,263.26304)"/>
<use data-text="p" xlink:href="#font_5_10" transform="matrix(8.9664,0,0,-8.9664,242.1643,263.26304)"/>
<use data-text="l" xlink:href="#font_5_6" transform="matrix(8.9664,0,0,-8.9664,247.28412,263.26304)"/>
<use data-text="e" xlink:href="#font_5_5" transform="matrix(8.9664,0,0,-8.9664,249.84851,263.26304)"/>
<use data-text="s" xlink:href="#font_5_13" transform="matrix(8.9664,0,0,-8.9664,253.94615,263.26304)"/>
<use data-text=")" xlink:href="#font_5_12" transform="matrix(8.9664,0,0,-8.9664,257.5775,263.26304)"/>
<use data-text="E" xlink:href="#font_5_4" transform="matrix(0,-8.9664,-8.9664,-0,15.027,177.33002)"/>
<use data-text="x" xlink:href="#font_5_16" transform="matrix(0,-8.9664,-8.9664,-0,15.027,171.06252)"/>
<use data-text="e" xlink:href="#font_5_5" transform="matrix(0,-8.9664,-8.9664,-0,15.027,166.20273)"/>
<use data-text="c" xlink:href="#font_5_2" transform="matrix(0,-8.9664,-8.9664,-0,15.027,162.10507)"/>
<use data-text="u" xlink:href="#font_5_15" transform="matrix(0,-8.9664,-8.9664,-0,15.027,158.00743)"/>
<use data-text="t" xlink:href="#font_5_14" transform="matrix(0,-8.9664,-8.9664,-0,15.027,152.88762)"/>
<use data-text="i" xlink:href="#font_5_18" transform="matrix(0,-8.9664,-8.9664,-0,15.027,149.30106)"/>
<use data-text="o" xlink:href="#font_5_9" transform="matrix(0,-8.9664,-8.9664,-0,15.027,146.73667)"/>
<use data-text="n" xlink:href="#font_5_8" transform="matrix(0,-8.9664,-8.9664,-0,15.027,142.12793)"/>
<use data-text="t" xlink:href="#font_5_14" transform="matrix(0,-8.9664,-8.9664,-0,15.027,133.9416)"/>
<use data-text="i" xlink:href="#font_5_18" transform="matrix(0,-8.9664,-8.9664,-0,15.027,130.35504)"/>
<use data-text="m" xlink:href="#font_5_7" transform="matrix(0,-8.9664,-8.9664,-0,15.027,127.79066)"/>
<use data-text="e" xlink:href="#font_5_5" transform="matrix(0,-8.9664,-8.9664,-0,15.027,120.11542)"/>
<use data-text="(" xlink:href="#font_5_11" transform="matrix(0,-8.9664,-8.9664,-0,15.027,112.9423)"/>
<use data-text="m" xlink:href="#font_5_7" transform="matrix(0,-8.9664,-8.9664,-0,15.027,109.355739)"/>
<use data-text="s" xlink:href="#font_5_13" transform="matrix(0,-8.9664,-8.9664,-0,15.027,101.6805)"/>
<use data-text=")" xlink:href="#font_5_12" transform="matrix(0,-8.9664,-8.9664,-0,15.027,98.0491)"/>
<use data-text="C" xlink:href="#font_6_2" transform="matrix(9.9626,0,0,-9.9626,92.208,15.774017)"/>
<use data-text="o" xlink:href="#font_6_11" transform="matrix(9.9626,0,0,-9.9626,100.48692,15.774017)"/>
<use data-text="m" xlink:href="#font_6_9" transform="matrix(9.9626,0,0,-9.9626,106.215419,15.774017)"/>
<use data-text="p" xlink:href="#font_6_12" transform="matrix(9.9626,0,0,-9.9626,115.75959,15.774017)"/>
<use data-text="a" xlink:href="#font_6_1" transform="matrix(9.9626,0,0,-9.9626,122.125698,15.774017)"/>
<use data-text="r" xlink:href="#font_6_15" transform="matrix(9.9626,0,0,-9.9626,127.694789,15.774017)"/>
<use data-text="i" xlink:href="#font_6_23" transform="matrix(9.9626,0,0,-9.9626,132.41706,15.774017)"/>
<use data-text="s" xlink:href="#font_6_17" transform="matrix(9.9626,0,0,-9.9626,135.60509,15.774017)"/>
<use data-text="o" xlink:href="#font_6_11" transform="matrix(9.9626,0,0,-9.9626,140.12812,15.774017)"/>
<use data-text="n" xlink:href="#font_6_10" transform="matrix(9.9626,0,0,-9.9626,145.85662,15.774017)"/>
<use data-text="o" xlink:href="#font_6_11" transform="matrix(9.9626,0,0,-9.9626,156.03839,15.774017)"/>
<use data-text="f" xlink:href="#font_6_6" transform="matrix(9.9626,0,0,-9.9626,161.76689,15.774017)"/>
<use data-text="e" xlink:href="#font_6_4" transform="matrix(9.9626,0,0,-9.9626,169.0894,15.774017)"/>
<use data-text="x" xlink:href="#font_6_22" transform="matrix(9.9626,0,0,-9.9626,174.33969,15.774017)"/>
<use data-text="e" xlink:href="#font_6_4" transform="matrix(9.9626,0,0,-9.9626,180.387,15.774017)"/>
<use data-text="c" xlink:href="#font_6_3" transform="matrix(9.9626,0,0,-9.9626,185.63729,15.774017)"/>
<use data-text="u" xlink:href="#font_6_21" transform="matrix(9.9626,0,0,-9.9626,190.72818,15.774017)"/>
<use data-text="t" xlink:href="#font_6_20" transform="matrix(9.9626,0,0,-9.9626,197.09429,15.774017)"/>
<use data-text="i" xlink:href="#font_6_23" transform="matrix(9.9626,0,0,-9.9626,201.54756,15.774017)"/>
<use data-text="o" xlink:href="#font_6_11" transform="matrix(9.9626,0,0,-9.9626,204.7356,15.774017)"/>
<use data-text="n" xlink:href="#font_6_10" transform="matrix(9.9626,0,0,-9.9626,210.4641,15.774017)"/>
<use data-text="t" xlink:href="#font_6_20" transform="matrix(9.9626,0,0,-9.9626,220.64588,15.774017)"/>
<use data-text="i" xlink:href="#font_6_23" transform="matrix(9.9626,0,0,-9.9626,225.09915,15.774017)"/>
<use data-text="m" xlink:href="#font_6_9" transform="matrix(9.9626,0,0,-9.9626,228.28719,15.774017)"/>
<use data-text="e" xlink:href="#font_6_4" transform="matrix(9.9626,0,0,-9.9626,237.83136,15.774017)"/>
<use data-text="f" xlink:href="#font_6_6" transform="matrix(9.9626,0,0,-9.9626,246.89733,15.774017)"/>
<use data-text="o" xlink:href="#font_6_11" transform="matrix(9.9626,0,0,-9.9626,250.3942,15.774017)"/>
<use data-text="r" xlink:href="#font_6_15" transform="matrix(9.9626,0,0,-9.9626,256.12269,15.774017)"/>
<use data-text="S" xlink:href="#font_6_16" transform="matrix(9.9626,0,0,-9.9626,264.6606,15.774017)"/>
<use data-text="T" xlink:href="#font_6_19" transform="matrix(9.9626,0,0,-9.9626,271.0267,15.774017)"/>
<use data-text="F" xlink:href="#font_6_5" transform="matrix(9.9626,0,0,-9.9626,278.9968,15.774017)"/>
<use data-text="T" xlink:href="#font_6_19" transform="matrix(9.9626,0,0,-9.9626,286.20973,15.774017)"/>
<use data-text="(" xlink:href="#font_6_13" transform="matrix(9.9626,0,0,-9.9626,298.00547,15.774017)"/>
<use data-text="f" xlink:href="#font_6_7" transform="matrix(9.9626,0,0,-9.9626,302.45875,15.774017)"/>
<use data-text="o" xlink:href="#font_6_11" transform="matrix(9.9626,0,0,-9.9626,308.82484,15.774017)"/>
<use data-text="a" xlink:href="#font_6_1" transform="matrix(9.9626,0,0,-9.9626,314.5533,15.774017)"/>
<use data-text="t" xlink:href="#font_6_20" transform="matrix(9.9626,0,0,-9.9626,320.1224,15.774017)"/>
<use data-text="6" xlink:href="#font_6_18" transform="matrix(9.9626,0,0,-9.9626,324.57569,15.774017)"/>
<use data-text="4" xlink:href="#font_6_8" transform="matrix(9.9626,0,0,-9.9626,330.30418,15.774017)"/>
<use data-text=")" xlink:href="#font_6_14" transform="matrix(9.9626,0,0,-9.9626,336.03266,15.774017)"/>
<path transform="matrix(1,0,0,-1,40.331,241.04203)" d="M10.75949 177.86139H74.62378V203.78635H10.75949Z" fill="#ffffff" fill-opacity=".8"/>
<path transform="matrix(1,0,0,-1,40.331,241.04203)" stroke-width=".3985" stroke-linecap="butt" stroke-miterlimit="10" stroke-linejoin="miter" fill="none" stroke="#000000" d="M10.75949 177.86139H74.62378V203.78635H10.75949Z"/>
<path transform="matrix(1,0,0,-1,54.477,44.736024)" stroke-width=".79701" stroke-linecap="butt" stroke-miterlimit="10" stroke-linejoin="miter" fill="none" stroke="#b35900" d="M0 0H8.50412 17.00826"/>
<path transform="matrix(1,0,0,-1,54.477,44.736024)" d="M9.99854 0C9.99854 .82533 9.32947 1.49442 8.50412 1.49442 7.67877 1.49442 7.0097 .82533 7.0097 0 7.0097-.82533 7.67877-1.49442 8.50412-1.49442 9.32947-1.49442 9.99854-.82533 9.99854 0ZM8.50412 0" fill="#b35900" fill-opacity=".8"/>
<path transform="matrix(1,0,0,-1,54.477,44.736024)" stroke-width=".79701" stroke-linecap="butt" stroke-miterlimit="10" stroke-linejoin="miter" fill="none" stroke="#b35900" d="M9.99854 0C9.99854 .82533 9.32947 1.49442 8.50412 1.49442 7.67877 1.49442 7.0097 .82533 7.0097 0 7.0097-.82533 7.67877-1.49442 8.50412-1.49442 9.32947-1.49442 9.99854-.82533 9.99854 0ZM8.50412 0"/>
<use data-text="S" xlink:href="#font_7_13" transform="matrix(7.9701,0,0,-7.9701,73.87599,46.73401)"/>
<use data-text="o" xlink:href="#font_7_10" transform="matrix(7.9701,0,0,-7.9701,78.578357,46.73401)"/>
<use data-text="u" xlink:href="#font_7_18" transform="matrix(7.9701,0,0,-7.9701,82.81048,46.73401)"/>
<use data-text="n" xlink:href="#font_7_9" transform="matrix(7.9701,0,0,-7.9701,87.51284,46.73401)"/>
<use data-text="d" xlink:href="#font_7_3" transform="matrix(7.9701,0,0,-7.9701,92.2152,46.73401)"/>
<use data-text="M" xlink:href="#font_7_8" transform="matrix(7.9701,0,0,-7.9701,96.917568,46.73401)"/>
<use data-text="L" xlink:href="#font_7_7" transform="matrix(7.9701,0,0,-7.9701,104.67247,46.73401)"/>
<path transform="matrix(1,0,0,-1,54.476999,55.706026)" stroke-width=".79701" stroke-linecap="butt" stroke-miterlimit="10" stroke-linejoin="miter" fill="none" stroke="#0000cc" d="M0 0H8.50412 17.00826"/>
<path transform="matrix(1,0,0,-1,54.476999,55.706026)" d="M7.0097-1.49442H9.998529V1.49441H7.0097Z" fill="#0000cc" fill-opacity=".8"/>
<path transform="matrix(1,0,0,-1,54.476999,55.706026)" stroke-width=".79701" stroke-linecap="butt" stroke-miterlimit="10" stroke-linejoin="miter" fill="none" stroke="#0000cc" d="M7.0097-1.49442H9.998529V1.49441H7.0097Z"/>
<use data-text="L" xlink:href="#font_7_7" transform="matrix(7.9701,0,0,-7.9701,78.197,57.70401)"/>
<use data-text="i" xlink:href="#font_7_20" transform="matrix(7.9701,0,0,-7.9701,83.48914,57.70401)"/>
<use data-text="b" xlink:href="#font_7_2" transform="matrix(7.9701,0,0,-7.9701,85.840328,57.70401)"/>
<use data-text="r" xlink:href="#font_7_12" transform="matrix(7.9701,0,0,-7.9701,90.54269,57.70401)"/>
<use data-text="o" xlink:href="#font_7_10" transform="matrix(7.9701,0,0,-7.9701,93.84231,57.70401)"/>
<use data-text="s" xlink:href="#font_7_14" transform="matrix(7.9701,0,0,-7.9701,98.07443,57.70401)"/>
<use data-text="a" xlink:href="#font_7_1" transform="matrix(7.9701,0,0,-7.9701,101.4139,57.70401)"/>
</svg>
